<mxfile host="65bd71144e">
    <diagram id="PMe3w911ehjpML2P2UXe" name="module">
        <mxGraphModel dx="659" dy="-2701" grid="1" gridSize="10" guides="1" tooltips="1" connect="1" arrows="1" fold="1" page="1" pageScale="1" pageWidth="850" pageHeight="1100" math="0" shadow="0">
            <root>
                <mxCell id="0"/>
                <mxCell id="1" parent="0"/>
                <mxCell id="2" value="Linux Hardware Module" style="rounded=0;whiteSpace=wrap;html=1;align=left;verticalAlign=top;fontSize=15;fontStyle=1" parent="1" vertex="1">
                    <mxGeometry x="116.5" y="3544" width="632" height="467" as="geometry"/>
                </mxCell>
                <mxCell id="3" value="i2c bus device" style="rounded=0;whiteSpace=wrap;html=1;fillColor=#dae8fc;strokeColor=#6c8ebf;align=right;verticalAlign=bottom;" parent="1" vertex="1">
                    <mxGeometry x="520.5" y="3872" width="210" height="110" as="geometry"/>
                </mxCell>
                <mxCell id="4" value="input class" style="rounded=0;whiteSpace=wrap;html=1;fillColor=#ffe6cc;strokeColor=#d79b00;align=left;verticalAlign=top;" parent="1" vertex="1">
                    <mxGeometry x="400.5" y="3882" width="210" height="80" as="geometry"/>
                </mxCell>
                <mxCell id="5" value="" style="rounded=0;whiteSpace=wrap;html=1;fillColor=#d5e8d4;strokeColor=#82b366;" parent="1" vertex="1">
                    <mxGeometry x="140.5" y="3582" width="460" height="240" as="geometry"/>
                </mxCell>
                <mxCell id="6" value="" style="rounded=0;whiteSpace=wrap;html=1;" parent="1" vertex="1">
                    <mxGeometry x="160.5" y="3712" width="430" height="10" as="geometry"/>
                </mxCell>
                <mxCell id="7" style="edgeStyle=none;html=1;exitX=0.5;exitY=1;exitDx=0;exitDy=0;startArrow=classic;startFill=1;entryX=0.141;entryY=-0.244;entryDx=0;entryDy=0;entryPerimeter=0;" parent="1" source="8" target="6" edge="1">
                    <mxGeometry relative="1" as="geometry">
                        <mxPoint x="220.5" y="3712" as="targetPoint"/>
                    </mxGeometry>
                </mxCell>
                <mxCell id="8" value="ARM Core" style="rounded=0;whiteSpace=wrap;html=1;" parent="1" vertex="1">
                    <mxGeometry x="160.5" y="3602" width="120" height="70" as="geometry"/>
                </mxCell>
                <mxCell id="9" style="edgeStyle=none;html=1;exitX=0.5;exitY=0;exitDx=0;exitDy=0;entryX=0.709;entryY=1.1;entryDx=0;entryDy=0;entryPerimeter=0;startArrow=classic;startFill=1;" parent="1" source="11" target="6" edge="1">
                    <mxGeometry relative="1" as="geometry"/>
                </mxCell>
                <mxCell id="10" style="edgeStyle=none;html=1;startArrow=classic;startFill=1;entryX=0.5;entryY=0;entryDx=0;entryDy=0;" parent="1" source="11" target="28" edge="1">
                    <mxGeometry relative="1" as="geometry">
                        <mxPoint x="465.5" y="3832" as="targetPoint"/>
                    </mxGeometry>
                </mxCell>
                <mxCell id="11" value="GPIO" style="rounded=0;whiteSpace=wrap;html=1;" parent="1" vertex="1">
                    <mxGeometry x="430.5" y="3762" width="70" height="40" as="geometry"/>
                </mxCell>
                <mxCell id="12" style="edgeStyle=none;html=1;exitX=0.5;exitY=0;exitDx=0;exitDy=0;entryX=0.921;entryY=1;entryDx=0;entryDy=0;entryPerimeter=0;startArrow=classic;startFill=1;" parent="1" source="14" target="6" edge="1">
                    <mxGeometry relative="1" as="geometry"/>
                </mxCell>
                <mxCell id="13" style="edgeStyle=none;html=1;exitX=0.5;exitY=1;exitDx=0;exitDy=0;entryX=0.204;entryY=0.041;entryDx=0;entryDy=0;entryPerimeter=0;startArrow=classic;startFill=1;" parent="1" source="14" target="16" edge="1">
                    <mxGeometry relative="1" as="geometry"/>
                </mxCell>
                <mxCell id="14" value="i2c" style="rounded=0;whiteSpace=wrap;html=1;" parent="1" vertex="1">
                    <mxGeometry x="520.5" y="3762" width="70" height="40" as="geometry"/>
                </mxCell>
                <mxCell id="15" style="edgeStyle=none;html=1;exitX=0.25;exitY=1;exitDx=0;exitDy=0;startArrow=classic;startFill=1;" parent="1" source="16" target="25" edge="1">
                    <mxGeometry relative="1" as="geometry"/>
                </mxCell>
                <mxCell id="16" value="" style="rounded=0;whiteSpace=wrap;html=1;" parent="1" vertex="1">
                    <mxGeometry x="510.5" y="3852" width="220" height="10" as="geometry"/>
                </mxCell>
                <mxCell id="17" value="platform bus" style="text;html=1;strokeColor=none;fillColor=none;align=center;verticalAlign=middle;whiteSpace=wrap;rounded=0;" parent="1" vertex="1">
                    <mxGeometry x="490.5" y="3682" width="85" height="30" as="geometry"/>
                </mxCell>
                <mxCell id="18" value="i2c bus" style="text;html=1;strokeColor=none;fillColor=none;align=center;verticalAlign=middle;whiteSpace=wrap;rounded=0;" parent="1" vertex="1">
                    <mxGeometry x="630.5" y="3822" width="85" height="30" as="geometry"/>
                </mxCell>
                <mxCell id="19" style="edgeStyle=none;html=1;exitX=0.5;exitY=0;exitDx=0;exitDy=0;entryX=0.295;entryY=1;entryDx=0;entryDy=0;entryPerimeter=0;startArrow=classic;startFill=1;" parent="1" source="20" target="6" edge="1">
                    <mxGeometry relative="1" as="geometry"/>
                </mxCell>
                <mxCell id="20" value="UART" style="rounded=0;whiteSpace=wrap;html=1;" parent="1" vertex="1">
                    <mxGeometry x="250.5" y="3762" width="70" height="40" as="geometry"/>
                </mxCell>
                <mxCell id="21" style="edgeStyle=none;html=1;exitX=0.5;exitY=0;exitDx=0;exitDy=0;entryX=0.5;entryY=1;entryDx=0;entryDy=0;startArrow=classic;startFill=1;" parent="1" source="22" target="6" edge="1">
                    <mxGeometry relative="1" as="geometry"/>
                </mxCell>
                <mxCell id="22" value="LCD" style="rounded=0;whiteSpace=wrap;html=1;" parent="1" vertex="1">
                    <mxGeometry x="340.5" y="3762" width="70" height="40" as="geometry"/>
                </mxCell>
                <mxCell id="23" style="edgeStyle=none;html=1;exitX=0.5;exitY=0;exitDx=0;exitDy=0;entryX=0.084;entryY=1.157;entryDx=0;entryDy=0;entryPerimeter=0;startArrow=classic;startFill=1;" parent="1" source="24" target="6" edge="1">
                    <mxGeometry relative="1" as="geometry"/>
                </mxCell>
                <mxCell id="24" value="SPI" style="rounded=0;whiteSpace=wrap;html=1;" parent="1" vertex="1">
                    <mxGeometry x="160.5" y="3762" width="70" height="40" as="geometry"/>
                </mxCell>
                <mxCell id="25" value="TouchScreen" style="rounded=0;whiteSpace=wrap;html=1;" parent="1" vertex="1">
                    <mxGeometry x="530.5" y="3912" width="70" height="40" as="geometry"/>
                </mxCell>
                <mxCell id="26" style="edgeStyle=none;html=1;entryX=0.75;entryY=1;entryDx=0;entryDy=0;startArrow=classic;startFill=1;" parent="1" source="27" target="16" edge="1">
                    <mxGeometry relative="1" as="geometry"/>
                </mxCell>
                <mxCell id="27" value="ap3216c" style="rounded=0;whiteSpace=wrap;html=1;" parent="1" vertex="1">
                    <mxGeometry x="638" y="3912" width="70" height="40" as="geometry"/>
                </mxCell>
                <mxCell id="28" value="key" style="rounded=0;whiteSpace=wrap;html=1;" parent="1" vertex="1">
                    <mxGeometry x="430.5" y="3912" width="70" height="40" as="geometry"/>
                </mxCell>
                <mxCell id="29" value="驱动模型" style="text;html=1;align=center;verticalAlign=middle;whiteSpace=wrap;rounded=0;fontSize=17;" parent="1" vertex="1">
                    <mxGeometry x="31" y="3367" width="99" height="30" as="geometry"/>
                </mxCell>
                <mxCell id="98" value="" style="rounded=0;whiteSpace=wrap;html=1;fontSize=18;" parent="1" vertex="1">
                    <mxGeometry x="25" y="5800" width="790" height="350" as="geometry"/>
                </mxCell>
                <mxCell id="99" style="edgeStyle=none;html=1;exitX=0.5;exitY=1;exitDx=0;exitDy=0;entryX=0.5;entryY=0;entryDx=0;entryDy=0;fontSize=14;verticalAlign=middle;fontStyle=0;horizontal=1;" parent="1" source="102" target="104" edge="1">
                    <mxGeometry relative="1" as="geometry">
                        <Array as="points">
                            <mxPoint x="260" y="4750"/>
                            <mxPoint x="60" y="4750"/>
                        </Array>
                    </mxGeometry>
                </mxCell>
                <mxCell id="100" style="edgeStyle=none;html=1;exitX=0.5;exitY=1;exitDx=0;exitDy=0;fontSize=14;verticalAlign=middle;fontStyle=0;horizontal=1;" parent="1" source="102" target="111" edge="1">
                    <mxGeometry relative="1" as="geometry"/>
                </mxCell>
                <mxCell id="101" style="edgeStyle=none;html=1;exitX=0.5;exitY=1;exitDx=0;exitDy=0;entryX=0.5;entryY=0;entryDx=0;entryDy=0;fontSize=14;verticalAlign=middle;fontStyle=0;horizontal=1;" parent="1" source="102" target="110" edge="1">
                    <mxGeometry relative="1" as="geometry">
                        <Array as="points">
                            <mxPoint x="260" y="4750"/>
                            <mxPoint x="460" y="4750"/>
                        </Array>
                    </mxGeometry>
                </mxCell>
                <mxCell id="102" value="/（根节点）" style="rounded=0;whiteSpace=wrap;html=1;fontSize=14;align=right;verticalAlign=middle;fontStyle=0;horizontal=1;" parent="1" vertex="1">
                    <mxGeometry x="220" y="4670" width="80" height="40" as="geometry"/>
                </mxCell>
                <mxCell id="103" value="" style="edgeStyle=none;html=1;fontSize=14;verticalAlign=middle;fontStyle=0;horizontal=1;" parent="1" source="104" target="112" edge="1">
                    <mxGeometry relative="1" as="geometry"/>
                </mxCell>
                <mxCell id="104" value="cpus&amp;nbsp;" style="rounded=0;whiteSpace=wrap;html=1;fontSize=14;align=center;verticalAlign=middle;fontStyle=0;horizontal=1;" parent="1" vertex="1">
                    <mxGeometry x="20" y="4790" width="80" height="40" as="geometry"/>
                </mxCell>
                <mxCell id="105" style="edgeStyle=none;html=1;entryX=0.5;entryY=0;entryDx=0;entryDy=0;fontSize=14;exitX=0.5;exitY=1;exitDx=0;exitDy=0;verticalAlign=middle;fontStyle=0;horizontal=1;" parent="1" source="110" target="113" edge="1">
                    <mxGeometry relative="1" as="geometry"/>
                </mxCell>
                <mxCell id="106" style="html=1;entryX=0.5;entryY=0;entryDx=0;entryDy=0;fontSize=14;exitX=0.5;exitY=1;exitDx=0;exitDy=0;verticalAlign=middle;fontStyle=0;horizontal=1;" parent="1" source="110" target="114" edge="1">
                    <mxGeometry relative="1" as="geometry"/>
                </mxCell>
                <mxCell id="107" style="edgeStyle=none;html=1;exitX=0.5;exitY=1;exitDx=0;exitDy=0;entryX=0.5;entryY=0;entryDx=0;entryDy=0;fontSize=14;verticalAlign=middle;fontStyle=0;horizontal=1;" parent="1" source="110" target="120" edge="1">
                    <mxGeometry relative="1" as="geometry"/>
                </mxCell>
                <mxCell id="108" style="edgeStyle=none;html=1;entryX=0.5;entryY=0;entryDx=0;entryDy=0;fontSize=14;exitX=0.5;exitY=1;exitDx=0;exitDy=0;verticalAlign=middle;fontStyle=0;horizontal=1;" parent="1" source="110" target="124" edge="1">
                    <mxGeometry relative="1" as="geometry"/>
                </mxCell>
                <mxCell id="109" style="edgeStyle=none;html=1;exitX=0.5;exitY=1;exitDx=0;exitDy=0;entryX=0.5;entryY=0;entryDx=0;entryDy=0;fontSize=14;verticalAlign=middle;fontStyle=0;horizontal=1;" parent="1" source="110" target="127" edge="1">
                    <mxGeometry relative="1" as="geometry"/>
                </mxCell>
                <mxCell id="110" value="soc" style="rounded=0;whiteSpace=wrap;html=1;fontSize=14;align=center;verticalAlign=middle;fontStyle=0;horizontal=1;" parent="1" vertex="1">
                    <mxGeometry x="420" y="4790" width="80" height="40" as="geometry"/>
                </mxCell>
                <mxCell id="111" value="pmu" style="rounded=0;whiteSpace=wrap;html=1;fontSize=14;align=center;verticalAlign=middle;fontStyle=0;horizontal=1;" parent="1" vertex="1">
                    <mxGeometry x="220" y="4790" width="80" height="40" as="geometry"/>
                </mxCell>
                <mxCell id="112" value="cpu@0&lt;br style=&quot;font-size: 14px;&quot;&gt;" style="rounded=0;whiteSpace=wrap;html=1;fontSize=14;align=center;verticalAlign=middle;fontStyle=0;horizontal=1;" parent="1" vertex="1">
                    <mxGeometry x="20" y="4910" width="80" height="40" as="geometry"/>
                </mxCell>
                <mxCell id="113" value="busfreq" style="rounded=0;whiteSpace=wrap;html=1;fontSize=14;align=center;verticalAlign=middle;fontStyle=0;horizontal=1;" parent="1" vertex="1">
                    <mxGeometry x="130" y="4910" width="50" height="40" as="geometry"/>
                </mxCell>
                <mxCell id="114" value="intc" style="rounded=0;whiteSpace=wrap;html=1;fontSize=14;align=center;verticalAlign=middle;fontStyle=0;horizontal=1;" parent="1" vertex="1">
                    <mxGeometry x="220" y="4910" width="40" height="40" as="geometry"/>
                </mxCell>
                <mxCell id="115" style="edgeStyle=none;html=1;entryX=0.5;entryY=0;entryDx=0;entryDy=0;fontSize=14;exitX=0.5;exitY=1;exitDx=0;exitDy=0;verticalAlign=middle;fontStyle=0;horizontal=1;" parent="1" source="120" target="129" edge="1">
                    <mxGeometry relative="1" as="geometry"/>
                </mxCell>
                <mxCell id="116" style="edgeStyle=none;html=1;exitX=0.5;exitY=1;exitDx=0;exitDy=0;entryX=0.5;entryY=0;entryDx=0;entryDy=0;fontSize=14;verticalAlign=middle;fontStyle=0;horizontal=1;" parent="1" source="120" target="130" edge="1">
                    <mxGeometry relative="1" as="geometry"/>
                </mxCell>
                <mxCell id="117" style="edgeStyle=none;html=1;exitX=0.5;exitY=1;exitDx=0;exitDy=0;entryX=0.5;entryY=0;entryDx=0;entryDy=0;fontSize=14;verticalAlign=middle;fontStyle=0;horizontal=1;" parent="1" source="120" target="133" edge="1">
                    <mxGeometry relative="1" as="geometry"/>
                </mxCell>
                <mxCell id="118" style="edgeStyle=none;html=1;exitX=0.5;exitY=1;exitDx=0;exitDy=0;entryX=0.5;entryY=0;entryDx=0;entryDy=0;fontSize=14;verticalAlign=middle;fontStyle=0;horizontal=1;" parent="1" source="120" target="134" edge="1">
                    <mxGeometry relative="1" as="geometry"/>
                </mxCell>
                <mxCell id="119" style="edgeStyle=none;html=1;exitX=0.5;exitY=1;exitDx=0;exitDy=0;entryX=0.5;entryY=0;entryDx=0;entryDy=0;fontSize=14;verticalAlign=middle;fontStyle=0;horizontal=1;" parent="1" source="120" target="141" edge="1">
                    <mxGeometry relative="1" as="geometry"/>
                </mxCell>
                <mxCell id="120" value="aips1" style="rounded=0;whiteSpace=wrap;html=1;fontSize=14;align=center;verticalAlign=middle;fontStyle=0;horizontal=1;" parent="1" vertex="1">
                    <mxGeometry x="355" y="4910" width="50" height="40" as="geometry"/>
                </mxCell>
                <mxCell id="121" style="edgeStyle=none;html=1;exitX=0.5;exitY=1;exitDx=0;exitDy=0;entryX=0.5;entryY=0;entryDx=0;entryDy=0;fontSize=14;verticalAlign=middle;fontStyle=0;horizontal=1;" parent="1" source="124" target="131" edge="1">
                    <mxGeometry relative="1" as="geometry"/>
                </mxCell>
                <mxCell id="122" style="edgeStyle=none;html=1;entryX=0.5;entryY=0;entryDx=0;entryDy=0;fontSize=14;verticalAlign=middle;fontStyle=0;horizontal=1;" parent="1" target="132" edge="1">
                    <mxGeometry relative="1" as="geometry">
                        <mxPoint x="550" y="4950" as="sourcePoint"/>
                    </mxGeometry>
                </mxCell>
                <mxCell id="123" style="edgeStyle=none;html=1;exitX=0.5;exitY=1;exitDx=0;exitDy=0;entryX=0.5;entryY=0;entryDx=0;entryDy=0;fontSize=14;verticalAlign=middle;fontStyle=0;horizontal=1;" parent="1" source="124" target="137" edge="1">
                    <mxGeometry relative="1" as="geometry"/>
                </mxCell>
                <mxCell id="124" value="aips2" style="rounded=0;whiteSpace=wrap;html=1;fontSize=14;align=center;verticalAlign=middle;fontStyle=0;horizontal=1;" parent="1" vertex="1">
                    <mxGeometry x="520" y="4910" width="60" height="40" as="geometry"/>
                </mxCell>
                <mxCell id="125" style="edgeStyle=none;html=1;exitX=0.5;exitY=1;exitDx=0;exitDy=0;entryX=0.5;entryY=0;entryDx=0;entryDy=0;fontSize=14;verticalAlign=middle;fontStyle=0;horizontal=1;" parent="1" source="127" target="138" edge="1">
                    <mxGeometry relative="1" as="geometry"/>
                </mxCell>
                <mxCell id="126" style="edgeStyle=none;html=1;entryX=0.5;entryY=0;entryDx=0;entryDy=0;fontSize=14;verticalAlign=middle;fontStyle=0;horizontal=1;" parent="1" source="127" target="140" edge="1">
                    <mxGeometry relative="1" as="geometry"/>
                </mxCell>
                <mxCell id="127" value="aips3" style="rounded=0;whiteSpace=wrap;html=1;fontSize=14;align=center;verticalAlign=middle;fontStyle=0;horizontal=1;" parent="1" vertex="1">
                    <mxGeometry x="690" y="4910" width="60" height="40" as="geometry"/>
                </mxCell>
                <mxCell id="128" style="edgeStyle=none;html=1;exitX=0.5;exitY=1;exitDx=0;exitDy=0;entryX=0.5;entryY=0;entryDx=0;entryDy=0;fontSize=14;verticalAlign=middle;fontStyle=0;horizontal=1;" parent="1" source="129" target="142" edge="1">
                    <mxGeometry relative="1" as="geometry"/>
                </mxCell>
                <mxCell id="129" value="ecspi" style="rounded=0;whiteSpace=wrap;html=1;fontSize=14;align=center;verticalAlign=middle;fontStyle=0;horizontal=1;" parent="1" vertex="1">
                    <mxGeometry x="220" y="5010" width="40" height="40" as="geometry"/>
                </mxCell>
                <mxCell id="130" value="uart" style="rounded=0;whiteSpace=wrap;html=1;fontSize=14;align=center;verticalAlign=middle;fontStyle=0;horizontal=1;" parent="1" vertex="1">
                    <mxGeometry x="280" y="5010" width="40" height="40" as="geometry"/>
                </mxCell>
                <mxCell id="131" value="crypto" style="rounded=0;whiteSpace=wrap;html=1;fontSize=14;align=center;verticalAlign=middle;fontStyle=0;horizontal=1;" parent="1" vertex="1">
                    <mxGeometry x="460" y="5010" width="40" height="40" as="geometry"/>
                </mxCell>
                <mxCell id="132" value="fec1" style="rounded=0;whiteSpace=wrap;html=1;fontSize=14;align=center;verticalAlign=middle;fontStyle=0;horizontal=1;" parent="1" vertex="1">
                    <mxGeometry x="530" y="5010" width="40" height="40" as="geometry"/>
                </mxCell>
                <mxCell id="133" value="pwm" style="rounded=0;whiteSpace=wrap;html=1;fontSize=14;align=center;verticalAlign=middle;fontStyle=0;horizontal=1;" parent="1" vertex="1">
                    <mxGeometry x="340" y="5010" width="40" height="40" as="geometry"/>
                </mxCell>
                <mxCell id="134" value="can" style="rounded=0;whiteSpace=wrap;html=1;fontSize=14;align=center;verticalAlign=middle;fontStyle=0;horizontal=1;" parent="1" vertex="1">
                    <mxGeometry x="400" y="5010" width="40" height="40" as="geometry"/>
                </mxCell>
                <mxCell id="135" style="edgeStyle=none;html=1;entryX=0.5;entryY=0;entryDx=0;entryDy=0;fontSize=14;exitX=0.5;exitY=1;exitDx=0;exitDy=0;verticalAlign=middle;fontStyle=0;horizontal=1;" parent="1" source="137" target="144" edge="1">
                    <mxGeometry relative="1" as="geometry"/>
                </mxCell>
                <mxCell id="136" style="edgeStyle=none;html=1;entryX=0.5;entryY=0;entryDx=0;entryDy=0;fontSize=14;exitX=0.5;exitY=1;exitDx=0;exitDy=0;verticalAlign=middle;fontStyle=0;horizontal=1;" parent="1" source="137" target="145" edge="1">
                    <mxGeometry relative="1" as="geometry"/>
                </mxCell>
                <mxCell id="137" value="i2c" style="rounded=0;whiteSpace=wrap;html=1;fontSize=14;align=center;verticalAlign=middle;fontStyle=0;horizontal=1;" parent="1" vertex="1">
                    <mxGeometry x="590" y="5010" width="40" height="40" as="geometry"/>
                </mxCell>
                <mxCell id="138" value="rngb" style="rounded=0;whiteSpace=wrap;html=1;fontSize=14;align=center;verticalAlign=middle;fontStyle=0;horizontal=1;" parent="1" vertex="1">
                    <mxGeometry x="660" y="5010" width="40" height="40" as="geometry"/>
                </mxCell>
                <mxCell id="139" style="edgeStyle=none;html=1;entryX=0.5;entryY=0;entryDx=0;entryDy=0;fontSize=14;verticalAlign=middle;fontStyle=0;horizontal=1;" parent="1" source="140" target="143" edge="1">
                    <mxGeometry relative="1" as="geometry"/>
                </mxCell>
                <mxCell id="140" value="iomuxc_snvs" style="rounded=0;whiteSpace=wrap;html=1;fontSize=14;align=center;verticalAlign=middle;fontStyle=0;horizontal=1;" parent="1" vertex="1">
                    <mxGeometry x="720" y="5010" width="90" height="40" as="geometry"/>
                </mxCell>
                <mxCell id="141" value="iomuxc" style="rounded=0;whiteSpace=wrap;html=1;fontSize=14;align=center;verticalAlign=middle;fontStyle=0;horizontal=1;" parent="1" vertex="1">
                    <mxGeometry x="160" y="5010" width="50" height="40" as="geometry"/>
                </mxCell>
                <mxCell id="142" value="icm20608" style="rounded=0;whiteSpace=wrap;html=1;fontSize=14;align=center;verticalAlign=middle;fontStyle=0;horizontal=1;" parent="1" vertex="1">
                    <mxGeometry x="205" y="5110" width="70" height="40" as="geometry"/>
                </mxCell>
                <mxCell id="143" value="pinctrl" style="rounded=0;whiteSpace=wrap;html=1;fontSize=14;align=center;verticalAlign=middle;fontStyle=0;horizontal=1;" parent="1" vertex="1">
                    <mxGeometry x="730" y="5110" width="70" height="40" as="geometry"/>
                </mxCell>
                <mxCell id="144" value="ap3216" style="rounded=0;whiteSpace=wrap;html=1;fontSize=14;align=center;verticalAlign=middle;fontStyle=0;horizontal=1;" parent="1" vertex="1">
                    <mxGeometry x="530" y="5110" width="55" height="40" as="geometry"/>
                </mxCell>
                <mxCell id="145" value="gt7149" style="rounded=0;whiteSpace=wrap;html=1;fontSize=14;align=center;verticalAlign=middle;fontStyle=0;horizontal=1;" parent="1" vertex="1">
                    <mxGeometry x="630" y="5110" width="55" height="40" as="geometry"/>
                </mxCell>
                <mxCell id="146" style="edgeStyle=none;html=1;entryX=0;entryY=0.5;entryDx=0;entryDy=0;fontSize=18;" parent="1" source="147" target="149" edge="1">
                    <mxGeometry relative="1" as="geometry"/>
                </mxCell>
                <mxCell id="147" value="test.dts" style="rounded=0;whiteSpace=wrap;html=1;fontSize=18;" parent="1" vertex="1">
                    <mxGeometry x="45" y="5880" width="120" height="40" as="geometry"/>
                </mxCell>
                <mxCell id="148" style="edgeStyle=none;html=1;entryX=0;entryY=0.5;entryDx=0;entryDy=0;fontSize=18;exitX=1;exitY=0.5;exitDx=0;exitDy=0;" parent="1" source="149" target="155" edge="1">
                    <mxGeometry relative="1" as="geometry"/>
                </mxCell>
                <mxCell id="149" value="test.dtb&lt;br style=&quot;font-size: 18px;&quot;&gt;__symbols__" style="rounded=0;whiteSpace=wrap;html=1;fontSize=18;" parent="1" vertex="1">
                    <mxGeometry x="245" y="5880" width="120" height="40" as="geometry"/>
                </mxCell>
                <mxCell id="150" style="edgeStyle=none;html=1;fontSize=18;" parent="1" source="151" target="153" edge="1">
                    <mxGeometry relative="1" as="geometry"/>
                </mxCell>
                <mxCell id="151" value="overlay.dts" style="rounded=0;whiteSpace=wrap;html=1;fontSize=18;" parent="1" vertex="1">
                    <mxGeometry x="45" y="5960" width="120" height="40" as="geometry"/>
                </mxCell>
                <mxCell id="152" style="edgeStyle=none;html=1;entryX=0;entryY=0.5;entryDx=0;entryDy=0;fontSize=18;" parent="1" source="153" target="155" edge="1">
                    <mxGeometry relative="1" as="geometry"/>
                </mxCell>
                <mxCell id="153" value="overlay.dtbo" style="rounded=0;whiteSpace=wrap;html=1;fontSize=18;" parent="1" vertex="1">
                    <mxGeometry x="245" y="5960" width="120" height="40" as="geometry"/>
                </mxCell>
                <mxCell id="154" style="edgeStyle=none;html=1;fontSize=18;entryX=0;entryY=0.5;entryDx=0;entryDy=0;exitX=0.5;exitY=1;exitDx=0;exitDy=0;" parent="1" source="155" target="158" edge="1">
                    <mxGeometry relative="1" as="geometry"/>
                </mxCell>
                <mxCell id="155" value="device.dtb" style="rounded=0;whiteSpace=wrap;html=1;fontSize=18;" parent="1" vertex="1">
                    <mxGeometry x="445" y="5920" width="120" height="40" as="geometry"/>
                </mxCell>
                <mxCell id="156" style="edgeStyle=none;html=1;entryX=0;entryY=0.5;entryDx=0;entryDy=0;fontSize=18;exitX=0.5;exitY=0;exitDx=0;exitDy=0;" parent="1" source="157" target="158" edge="1">
                    <mxGeometry relative="1" as="geometry"/>
                </mxCell>
                <mxCell id="157" value="zImage" style="rounded=0;whiteSpace=wrap;html=1;fontSize=18;" parent="1" vertex="1">
                    <mxGeometry x="445" y="6080" width="120" height="40" as="geometry"/>
                </mxCell>
                <mxCell id="158" value="boot kernel" style="rounded=0;whiteSpace=wrap;html=1;fontSize=18;" parent="1" vertex="1">
                    <mxGeometry x="645" y="6000" width="120" height="40" as="geometry"/>
                </mxCell>
                <mxCell id="159" value="load" style="text;html=1;strokeColor=none;fillColor=none;align=center;verticalAlign=middle;whiteSpace=wrap;rounded=0;fontSize=18;" parent="1" vertex="1">
                    <mxGeometry x="375" y="5880" width="60" height="30" as="geometry"/>
                </mxCell>
                <mxCell id="160" value="fdt apply" style="text;html=1;strokeColor=none;fillColor=none;align=center;verticalAlign=middle;whiteSpace=wrap;rounded=0;fontSize=18;" parent="1" vertex="1">
                    <mxGeometry x="375" y="5960" width="60" height="40" as="geometry"/>
                </mxCell>
                <mxCell id="161" value="" style="endArrow=none;dashed=1;html=1;dashPattern=1 3;strokeWidth=2;fontSize=18;" parent="1" edge="1">
                    <mxGeometry width="50" height="50" relative="1" as="geometry">
                        <mxPoint x="375" y="6130" as="sourcePoint"/>
                        <mxPoint x="375" y="5810" as="targetPoint"/>
                    </mxGeometry>
                </mxCell>
                <mxCell id="162" value="" style="endArrow=none;dashed=1;html=1;dashPattern=1 3;strokeWidth=2;fontSize=18;" parent="1" edge="1">
                    <mxGeometry width="50" height="50" relative="1" as="geometry">
                        <mxPoint x="615" y="6130" as="sourcePoint"/>
                        <mxPoint x="615" y="5810" as="targetPoint"/>
                    </mxGeometry>
                </mxCell>
                <mxCell id="163" value="compiler" style="text;html=1;strokeColor=none;fillColor=none;align=center;verticalAlign=middle;whiteSpace=wrap;rounded=0;fontSize=18;" parent="1" vertex="1">
                    <mxGeometry x="155" y="5830" width="60" height="30" as="geometry"/>
                </mxCell>
                <mxCell id="164" value="u-boot" style="text;html=1;strokeColor=none;fillColor=none;align=center;verticalAlign=middle;whiteSpace=wrap;rounded=0;fontSize=18;" parent="1" vertex="1">
                    <mxGeometry x="465" y="5830" width="60" height="30" as="geometry"/>
                </mxCell>
                <mxCell id="165" value="kernel" style="text;html=1;strokeColor=none;fillColor=none;align=center;verticalAlign=middle;whiteSpace=wrap;rounded=0;fontSize=18;" parent="1" vertex="1">
                    <mxGeometry x="675" y="5830" width="60" height="30" as="geometry"/>
                </mxCell>
                <mxCell id="166" value="设备树框架" style="text;html=1;align=center;verticalAlign=middle;whiteSpace=wrap;rounded=0;fontSize=17;" parent="1" vertex="1">
                    <mxGeometry x="41.5" y="4450" width="99" height="30" as="geometry"/>
                </mxCell>
            </root>
        </mxGraphModel>
    </diagram>
    <diagram id="xlJfDwxS_MPvmNOlK0W6" name="13.brightness">
        <mxGraphModel dx="960" dy="797" grid="1" gridSize="10" guides="1" tooltips="1" connect="1" arrows="1" fold="1" page="1" pageScale="1" pageWidth="850" pageHeight="1100" math="0" shadow="0">
            <root>
                <mxCell id="0"/>
                <mxCell id="1" parent="0"/>
                <mxCell id="7r0dj3_fHezTbbUqGzSX-1" value="" style="rounded=0;whiteSpace=wrap;html=1;" parent="1" vertex="1">
                    <mxGeometry x="150" y="160" width="490" height="470" as="geometry"/>
                </mxCell>
                <mxCell id="7r0dj3_fHezTbbUqGzSX-2" style="edgeStyle=none;html=1;entryX=0.5;entryY=0;entryDx=0;entryDy=0;" parent="1" source="7r0dj3_fHezTbbUqGzSX-3" target="7r0dj3_fHezTbbUqGzSX-5" edge="1">
                    <mxGeometry relative="1" as="geometry"/>
                </mxCell>
                <mxCell id="7r0dj3_fHezTbbUqGzSX-3" value="read/write" style="rounded=0;whiteSpace=wrap;html=1;" parent="1" vertex="1">
                    <mxGeometry x="360" y="180" width="80" height="40" as="geometry"/>
                </mxCell>
                <mxCell id="7r0dj3_fHezTbbUqGzSX-4" style="edgeStyle=none;html=1;entryX=0.5;entryY=0;entryDx=0;entryDy=0;" parent="1" source="7r0dj3_fHezTbbUqGzSX-5" target="7r0dj3_fHezTbbUqGzSX-7" edge="1">
                    <mxGeometry relative="1" as="geometry"/>
                </mxCell>
                <mxCell id="7r0dj3_fHezTbbUqGzSX-5" value="/sys/class/backlight/backlight-display/actual_brightness" style="rounded=0;whiteSpace=wrap;html=1;" parent="1" vertex="1">
                    <mxGeometry x="240" y="260" width="320" height="40" as="geometry"/>
                </mxCell>
                <mxCell id="7r0dj3_fHezTbbUqGzSX-6" style="edgeStyle=none;html=1;entryX=0.5;entryY=0;entryDx=0;entryDy=0;" parent="1" source="7r0dj3_fHezTbbUqGzSX-7" target="7r0dj3_fHezTbbUqGzSX-10" edge="1">
                    <mxGeometry relative="1" as="geometry">
                        <Array as="points">
                            <mxPoint x="280" y="360"/>
                        </Array>
                    </mxGeometry>
                </mxCell>
                <mxCell id="7r0dj3_fHezTbbUqGzSX-7" value="Brightness&lt;br&gt;subsystem" style="rounded=0;whiteSpace=wrap;html=1;" parent="1" vertex="1">
                    <mxGeometry x="360" y="340" width="80" height="40" as="geometry"/>
                </mxCell>
                <mxCell id="7r0dj3_fHezTbbUqGzSX-8" style="edgeStyle=none;html=1;entryX=0.5;entryY=0;entryDx=0;entryDy=0;" parent="1" source="7r0dj3_fHezTbbUqGzSX-10" target="7r0dj3_fHezTbbUqGzSX-15" edge="1">
                    <mxGeometry relative="1" as="geometry"/>
                </mxCell>
                <mxCell id="7r0dj3_fHezTbbUqGzSX-9" style="edgeStyle=none;html=1;entryX=0.013;entryY=0.567;entryDx=0;entryDy=0;entryPerimeter=0;" parent="1" source="7r0dj3_fHezTbbUqGzSX-10" target="7r0dj3_fHezTbbUqGzSX-13" edge="1">
                    <mxGeometry relative="1" as="geometry">
                        <Array as="points">
                            <mxPoint x="200" y="440"/>
                            <mxPoint x="200" y="603"/>
                        </Array>
                    </mxGeometry>
                </mxCell>
                <mxCell id="7r0dj3_fHezTbbUqGzSX-10" value="pwm&lt;br&gt;provider" style="rounded=0;whiteSpace=wrap;html=1;" parent="1" vertex="1">
                    <mxGeometry x="240" y="420" width="80" height="40" as="geometry"/>
                </mxCell>
                <mxCell id="7r0dj3_fHezTbbUqGzSX-11" style="edgeStyle=none;html=1;exitX=0.5;exitY=0;exitDx=0;exitDy=0;entryX=1;entryY=0.5;entryDx=0;entryDy=0;" parent="1" source="7r0dj3_fHezTbbUqGzSX-12" target="7r0dj3_fHezTbbUqGzSX-7" edge="1">
                    <mxGeometry relative="1" as="geometry">
                        <Array as="points">
                            <mxPoint x="520" y="360"/>
                        </Array>
                    </mxGeometry>
                </mxCell>
                <mxCell id="7r0dj3_fHezTbbUqGzSX-12" value="Brightness&lt;div&gt;pwm consumer&lt;/div&gt;" style="rounded=0;whiteSpace=wrap;html=1;fontFamily=Helvetica;fontColor=default;" parent="1" vertex="1">
                    <mxGeometry x="460" y="420" width="120" height="40" as="geometry"/>
                </mxCell>
                <mxCell id="7r0dj3_fHezTbbUqGzSX-13" value="pwm register" style="rounded=0;whiteSpace=wrap;html=1;" parent="1" vertex="1">
                    <mxGeometry x="230" y="580" width="100" height="40" as="geometry"/>
                </mxCell>
                <mxCell id="7r0dj3_fHezTbbUqGzSX-14" style="edgeStyle=none;html=1;entryX=0.5;entryY=0;entryDx=0;entryDy=0;" parent="1" source="7r0dj3_fHezTbbUqGzSX-15" target="7r0dj3_fHezTbbUqGzSX-13" edge="1">
                    <mxGeometry relative="1" as="geometry"/>
                </mxCell>
                <mxCell id="7r0dj3_fHezTbbUqGzSX-15" value="RegMap" style="rounded=0;whiteSpace=wrap;html=1;" parent="1" vertex="1">
                    <mxGeometry x="240" y="500" width="80" height="40" as="geometry"/>
                </mxCell>
                <mxCell id="7r0dj3_fHezTbbUqGzSX-16" value="" style="endArrow=none;dashed=1;html=1;dashPattern=1 3;strokeWidth=2;" parent="1" edge="1">
                    <mxGeometry width="50" height="50" relative="1" as="geometry">
                        <mxPoint x="160" y="320" as="sourcePoint"/>
                        <mxPoint x="640" y="320" as="targetPoint"/>
                    </mxGeometry>
                </mxCell>
                <mxCell id="7r0dj3_fHezTbbUqGzSX-17" value="" style="endArrow=none;dashed=1;html=1;dashPattern=1 3;strokeWidth=2;" parent="1" edge="1">
                    <mxGeometry width="50" height="50" relative="1" as="geometry">
                        <mxPoint x="160" y="480" as="sourcePoint"/>
                        <mxPoint x="640" y="480" as="targetPoint"/>
                    </mxGeometry>
                </mxCell>
                <mxCell id="7r0dj3_fHezTbbUqGzSX-18" value="应用层" style="text;html=1;strokeColor=none;fillColor=none;align=center;verticalAlign=middle;whiteSpace=wrap;rounded=0;" parent="1" vertex="1">
                    <mxGeometry x="560" y="187.5" width="60" height="25" as="geometry"/>
                </mxCell>
                <mxCell id="7r0dj3_fHezTbbUqGzSX-19" value="核心层" style="text;html=1;strokeColor=none;fillColor=none;align=center;verticalAlign=middle;whiteSpace=wrap;rounded=0;" parent="1" vertex="1">
                    <mxGeometry x="560" y="340" width="60" height="25" as="geometry"/>
                </mxCell>
                <mxCell id="7r0dj3_fHezTbbUqGzSX-20" value="总线驱动" style="text;html=1;strokeColor=none;fillColor=none;align=center;verticalAlign=middle;whiteSpace=wrap;rounded=0;" parent="1" vertex="1">
                    <mxGeometry x="560" y="490" width="60" height="25" as="geometry"/>
                </mxCell>
            </root>
        </mxGraphModel>
    </diagram>
    <diagram id="VFj1nWjdsTCYNYlOxO4i" name="14.thermal">
        <mxGraphModel dx="960" dy="797" grid="1" gridSize="10" guides="1" tooltips="1" connect="1" arrows="1" fold="1" page="1" pageScale="1" pageWidth="850" pageHeight="1100" math="0" shadow="0">
            <root>
                <mxCell id="0"/>
                <mxCell id="1" parent="0"/>
                <mxCell id="BtdcTpsbTXxWV0c3rB0X-1" value="Thermal框架驱动" style="rounded=0;whiteSpace=wrap;html=1;align=left;verticalAlign=top;" parent="1" vertex="1">
                    <mxGeometry x="190" y="1320" width="480" height="200" as="geometry"/>
                </mxCell>
                <mxCell id="BtdcTpsbTXxWV0c3rB0X-2" value="" style="rounded=0;whiteSpace=wrap;html=1;" parent="1" vertex="1">
                    <mxGeometry x="110" y="210" width="670" height="530" as="geometry"/>
                </mxCell>
                <mxCell id="BtdcTpsbTXxWV0c3rB0X-3" style="edgeStyle=none;html=1;entryX=0.5;entryY=0;entryDx=0;entryDy=0;exitX=0.5;exitY=1;exitDx=0;exitDy=0;" parent="1" source="BtdcTpsbTXxWV0c3rB0X-4" target="BtdcTpsbTXxWV0c3rB0X-9" edge="1">
                    <mxGeometry relative="1" as="geometry"/>
                </mxCell>
                <mxCell id="BtdcTpsbTXxWV0c3rB0X-4" value="&lt;span style=&quot;color: rgb(0, 0, 0);&quot;&gt;/sys/class/thermal/cooling_device0/*&lt;/span&gt;" style="rounded=0;whiteSpace=wrap;html=1;" parent="1" vertex="1">
                    <mxGeometry x="540" y="225" width="200" height="40" as="geometry"/>
                </mxCell>
                <mxCell id="BtdcTpsbTXxWV0c3rB0X-5" style="edgeStyle=none;html=1;entryX=0.5;entryY=0;entryDx=0;entryDy=0;" parent="1" source="BtdcTpsbTXxWV0c3rB0X-6" target="BtdcTpsbTXxWV0c3rB0X-9" edge="1">
                    <mxGeometry relative="1" as="geometry"/>
                </mxCell>
                <mxCell id="BtdcTpsbTXxWV0c3rB0X-6" value="/sys/class/thermal/thermal_zone0/*" style="rounded=0;whiteSpace=wrap;html=1;" parent="1" vertex="1">
                    <mxGeometry x="210" y="230" width="200" height="40" as="geometry"/>
                </mxCell>
                <mxCell id="BtdcTpsbTXxWV0c3rB0X-7" value="应用层" style="text;html=1;align=center;verticalAlign=middle;whiteSpace=wrap;rounded=0;" parent="1" vertex="1">
                    <mxGeometry x="110" y="235" width="60" height="30" as="geometry"/>
                </mxCell>
                <mxCell id="BtdcTpsbTXxWV0c3rB0X-8" value="内核层" style="text;html=1;align=center;verticalAlign=middle;whiteSpace=wrap;rounded=0;" parent="1" vertex="1">
                    <mxGeometry x="110" y="390" width="60" height="30" as="geometry"/>
                </mxCell>
                <mxCell id="BtdcTpsbTXxWV0c3rB0X-9" value="Thermal Subsytem" style="rounded=0;whiteSpace=wrap;html=1;verticalAlign=top;align=left;" parent="1" vertex="1">
                    <mxGeometry x="250" y="340" width="330" height="210" as="geometry"/>
                </mxCell>
                <mxCell id="BtdcTpsbTXxWV0c3rB0X-10" style="edgeStyle=none;html=1;" parent="1" source="BtdcTpsbTXxWV0c3rB0X-11" target="BtdcTpsbTXxWV0c3rB0X-12" edge="1">
                    <mxGeometry relative="1" as="geometry"/>
                </mxCell>
                <mxCell id="BtdcTpsbTXxWV0c3rB0X-11" value="thermal_governor" style="rounded=0;whiteSpace=wrap;html=1;" parent="1" vertex="1">
                    <mxGeometry x="280" y="380" width="120" height="60" as="geometry"/>
                </mxCell>
                <mxCell id="BtdcTpsbTXxWV0c3rB0X-12" value="cooling_device" style="rounded=0;whiteSpace=wrap;html=1;" parent="1" vertex="1">
                    <mxGeometry x="430" y="380" width="120" height="60" as="geometry"/>
                </mxCell>
                <mxCell id="BtdcTpsbTXxWV0c3rB0X-13" value="theramal_zone" style="rounded=0;whiteSpace=wrap;html=1;" parent="1" vertex="1">
                    <mxGeometry x="280" y="470" width="120" height="60" as="geometry"/>
                </mxCell>
                <mxCell id="BtdcTpsbTXxWV0c3rB0X-14" style="edgeStyle=none;html=1;exitX=0.5;exitY=0;exitDx=0;exitDy=0;entryX=0.5;entryY=1;entryDx=0;entryDy=0;" parent="1" source="BtdcTpsbTXxWV0c3rB0X-16" target="BtdcTpsbTXxWV0c3rB0X-12" edge="1">
                    <mxGeometry relative="1" as="geometry"/>
                </mxCell>
                <mxCell id="BtdcTpsbTXxWV0c3rB0X-15" style="edgeStyle=none;html=1;entryX=1;entryY=0.5;entryDx=0;entryDy=0;" parent="1" source="BtdcTpsbTXxWV0c3rB0X-16" target="BtdcTpsbTXxWV0c3rB0X-13" edge="1">
                    <mxGeometry relative="1" as="geometry"/>
                </mxCell>
                <mxCell id="BtdcTpsbTXxWV0c3rB0X-16" value="device_tree" style="rounded=0;whiteSpace=wrap;html=1;" parent="1" vertex="1">
                    <mxGeometry x="430" y="470" width="120" height="60" as="geometry"/>
                </mxCell>
                <mxCell id="BtdcTpsbTXxWV0c3rB0X-17" value="" style="endArrow=classic;html=1;exitX=0.5;exitY=0;exitDx=0;exitDy=0;entryX=0.5;entryY=1;entryDx=0;entryDy=0;" parent="1" source="BtdcTpsbTXxWV0c3rB0X-13" target="BtdcTpsbTXxWV0c3rB0X-11" edge="1">
                    <mxGeometry width="50" height="50" relative="1" as="geometry">
                        <mxPoint x="350" y="510" as="sourcePoint"/>
                        <mxPoint x="400" y="460" as="targetPoint"/>
                    </mxGeometry>
                </mxCell>
                <mxCell id="BtdcTpsbTXxWV0c3rB0X-18" style="edgeStyle=none;html=1;entryX=0.5;entryY=0;entryDx=0;entryDy=0;" parent="1" source="BtdcTpsbTXxWV0c3rB0X-19" target="BtdcTpsbTXxWV0c3rB0X-22" edge="1">
                    <mxGeometry relative="1" as="geometry"/>
                </mxCell>
                <mxCell id="BtdcTpsbTXxWV0c3rB0X-19" value="PWM/DAC" style="rounded=0;whiteSpace=wrap;html=1;" parent="1" vertex="1">
                    <mxGeometry x="600" y="470" width="80" height="40" as="geometry"/>
                </mxCell>
                <mxCell id="BtdcTpsbTXxWV0c3rB0X-20" style="edgeStyle=none;html=1;entryX=0.5;entryY=0;entryDx=0;entryDy=0;" parent="1" source="BtdcTpsbTXxWV0c3rB0X-21" target="BtdcTpsbTXxWV0c3rB0X-23" edge="1">
                    <mxGeometry relative="1" as="geometry"/>
                </mxCell>
                <mxCell id="BtdcTpsbTXxWV0c3rB0X-21" value="Freq Opp" style="rounded=0;whiteSpace=wrap;html=1;" parent="1" vertex="1">
                    <mxGeometry x="690" y="470" width="80" height="40" as="geometry"/>
                </mxCell>
                <mxCell id="BtdcTpsbTXxWV0c3rB0X-22" value="Fan" style="rounded=0;whiteSpace=wrap;html=1;" parent="1" vertex="1">
                    <mxGeometry x="600" y="670" width="80" height="40" as="geometry"/>
                </mxCell>
                <mxCell id="BtdcTpsbTXxWV0c3rB0X-23" value="Cpu" style="rounded=0;whiteSpace=wrap;html=1;" parent="1" vertex="1">
                    <mxGeometry x="690" y="670" width="80" height="40" as="geometry"/>
                </mxCell>
                <mxCell id="BtdcTpsbTXxWV0c3rB0X-24" value="NTC" style="rounded=0;whiteSpace=wrap;html=1;" parent="1" vertex="1">
                    <mxGeometry x="230" y="670" width="80" height="40" as="geometry"/>
                </mxCell>
                <mxCell id="BtdcTpsbTXxWV0c3rB0X-25" style="edgeStyle=none;html=1;entryX=0.5;entryY=1;entryDx=0;entryDy=0;" parent="1" source="BtdcTpsbTXxWV0c3rB0X-26" target="BtdcTpsbTXxWV0c3rB0X-13" edge="1">
                    <mxGeometry relative="1" as="geometry"/>
                </mxCell>
                <mxCell id="BtdcTpsbTXxWV0c3rB0X-26" value="CPU Temp Sensor" style="rounded=0;whiteSpace=wrap;html=1;" parent="1" vertex="1">
                    <mxGeometry x="350" y="670" width="80" height="40" as="geometry"/>
                </mxCell>
                <mxCell id="BtdcTpsbTXxWV0c3rB0X-27" value="硬件层" style="text;html=1;align=center;verticalAlign=middle;whiteSpace=wrap;rounded=0;" parent="1" vertex="1">
                    <mxGeometry x="110" y="660" width="60" height="30" as="geometry"/>
                </mxCell>
                <mxCell id="BtdcTpsbTXxWV0c3rB0X-28" value="" style="endArrow=classic;html=1;exitX=0.5;exitY=0;exitDx=0;exitDy=0;entryX=0.5;entryY=1;entryDx=0;entryDy=0;" parent="1" source="BtdcTpsbTXxWV0c3rB0X-24" target="BtdcTpsbTXxWV0c3rB0X-13" edge="1">
                    <mxGeometry width="50" height="50" relative="1" as="geometry">
                        <mxPoint x="430" y="700" as="sourcePoint"/>
                        <mxPoint x="480" y="650" as="targetPoint"/>
                    </mxGeometry>
                </mxCell>
                <mxCell id="BtdcTpsbTXxWV0c3rB0X-29" style="edgeStyle=none;html=1;exitX=1;exitY=0.5;exitDx=0;exitDy=0;entryX=0.5;entryY=0;entryDx=0;entryDy=0;" parent="1" source="BtdcTpsbTXxWV0c3rB0X-12" target="BtdcTpsbTXxWV0c3rB0X-19" edge="1">
                    <mxGeometry relative="1" as="geometry">
                        <Array as="points">
                            <mxPoint x="640" y="410"/>
                        </Array>
                    </mxGeometry>
                </mxCell>
                <mxCell id="BtdcTpsbTXxWV0c3rB0X-30" value="" style="endArrow=classic;html=1;exitX=1;exitY=0.5;exitDx=0;exitDy=0;entryX=0.5;entryY=0;entryDx=0;entryDy=0;" parent="1" source="BtdcTpsbTXxWV0c3rB0X-12" target="BtdcTpsbTXxWV0c3rB0X-21" edge="1">
                    <mxGeometry width="50" height="50" relative="1" as="geometry">
                        <mxPoint x="430" y="540" as="sourcePoint"/>
                        <mxPoint x="480" y="490" as="targetPoint"/>
                        <Array as="points">
                            <mxPoint x="730" y="410"/>
                        </Array>
                    </mxGeometry>
                </mxCell>
                <mxCell id="BtdcTpsbTXxWV0c3rB0X-31" value="" style="endArrow=none;dashed=1;html=1;dashPattern=1 3;strokeWidth=2;" parent="1" edge="1">
                    <mxGeometry width="50" height="50" relative="1" as="geometry">
                        <mxPoint x="110" y="610" as="sourcePoint"/>
                        <mxPoint x="780" y="610" as="targetPoint"/>
                    </mxGeometry>
                </mxCell>
                <mxCell id="BtdcTpsbTXxWV0c3rB0X-32" value="" style="endArrow=none;dashed=1;html=1;dashPattern=1 3;strokeWidth=2;" parent="1" edge="1">
                    <mxGeometry width="50" height="50" relative="1" as="geometry">
                        <mxPoint x="110" y="310" as="sourcePoint"/>
                        <mxPoint x="780" y="310" as="targetPoint"/>
                    </mxGeometry>
                </mxCell>
                <mxCell id="BtdcTpsbTXxWV0c3rB0X-33" style="edgeStyle=none;html=1;entryX=0.5;entryY=1;entryDx=0;entryDy=0;" parent="1" source="BtdcTpsbTXxWV0c3rB0X-34" target="BtdcTpsbTXxWV0c3rB0X-36" edge="1">
                    <mxGeometry relative="1" as="geometry"/>
                </mxCell>
                <mxCell id="BtdcTpsbTXxWV0c3rB0X-34" value="NTC Sensor&lt;div&gt;iio adc device&lt;/div&gt;" style="rounded=0;whiteSpace=wrap;html=1;" parent="1" vertex="1">
                    <mxGeometry x="210" y="1470" width="120" height="40" as="geometry"/>
                </mxCell>
                <mxCell id="BtdcTpsbTXxWV0c3rB0X-35" style="edgeStyle=none;html=1;" parent="1" source="BtdcTpsbTXxWV0c3rB0X-36" target="BtdcTpsbTXxWV0c3rB0X-38" edge="1">
                    <mxGeometry relative="1" as="geometry"/>
                </mxCell>
                <mxCell id="BtdcTpsbTXxWV0c3rB0X-36" value="Thermal Zone Device" style="rounded=0;whiteSpace=wrap;html=1;" parent="1" vertex="1">
                    <mxGeometry x="210" y="1350" width="120" height="40" as="geometry"/>
                </mxCell>
                <mxCell id="BtdcTpsbTXxWV0c3rB0X-37" style="edgeStyle=none;html=1;" parent="1" source="BtdcTpsbTXxWV0c3rB0X-38" target="BtdcTpsbTXxWV0c3rB0X-40" edge="1">
                    <mxGeometry relative="1" as="geometry"/>
                </mxCell>
                <mxCell id="BtdcTpsbTXxWV0c3rB0X-38" value="Thermal&amp;nbsp;&lt;span style=&quot;color: rgb(0, 0, 0); background-color: rgb(255, 255, 255); font-family: Consolas, &amp;quot;Courier New&amp;quot;, monospace; font-size: 14px; white-space: pre;&quot;&gt;governor&lt;/span&gt;&lt;span style=&quot;background-color: transparent;&quot;&gt;&amp;nbsp;&lt;/span&gt;&lt;div&gt;&lt;span style=&quot;background-color: transparent;&quot;&gt;Device&lt;/span&gt;&lt;/div&gt;" style="rounded=0;whiteSpace=wrap;html=1;" parent="1" vertex="1">
                    <mxGeometry x="370" y="1350" width="120" height="40" as="geometry"/>
                </mxCell>
                <mxCell id="BtdcTpsbTXxWV0c3rB0X-39" style="edgeStyle=none;html=1;" parent="1" source="BtdcTpsbTXxWV0c3rB0X-40" target="BtdcTpsbTXxWV0c3rB0X-41" edge="1">
                    <mxGeometry relative="1" as="geometry"/>
                </mxCell>
                <mxCell id="BtdcTpsbTXxWV0c3rB0X-40" value="Thermal Cooling Device" style="rounded=0;whiteSpace=wrap;html=1;" parent="1" vertex="1">
                    <mxGeometry x="530" y="1350" width="120" height="40" as="geometry"/>
                </mxCell>
                <mxCell id="BtdcTpsbTXxWV0c3rB0X-41" value="fan device&lt;div&gt;pwm interface&lt;/div&gt;" style="rounded=0;whiteSpace=wrap;html=1;" parent="1" vertex="1">
                    <mxGeometry x="530" y="1470" width="120" height="40" as="geometry"/>
                </mxCell>
            </root>
        </mxGraphModel>
    </diagram>
    <diagram id="UrA7bPu4z8L7bo2C-7D2" name="15.wdt">
        <mxGraphModel dx="960" dy="797" grid="1" gridSize="10" guides="1" tooltips="1" connect="1" arrows="1" fold="1" page="1" pageScale="1" pageWidth="850" pageHeight="1100" math="0" shadow="0">
            <root>
                <mxCell id="0"/>
                <mxCell id="1" parent="0"/>
                <mxCell id="UYgfC0-6YiWqrj98MNo7-1" value="" style="rounded=0;whiteSpace=wrap;html=1;fontSize=16;" parent="1" vertex="1">
                    <mxGeometry x="35" y="170" width="780" height="620" as="geometry"/>
                </mxCell>
                <mxCell id="UYgfC0-6YiWqrj98MNo7-2" value="" style="endArrow=none;dashed=1;html=1;" parent="1" edge="1">
                    <mxGeometry width="50" height="50" relative="1" as="geometry">
                        <mxPoint x="40" y="390" as="sourcePoint"/>
                        <mxPoint x="800" y="390" as="targetPoint"/>
                    </mxGeometry>
                </mxCell>
                <mxCell id="UYgfC0-6YiWqrj98MNo7-3" value="ioctl options" style="rounded=0;whiteSpace=wrap;html=1;" parent="1" vertex="1">
                    <mxGeometry x="120" y="190" width="120" height="40" as="geometry"/>
                </mxCell>
                <mxCell id="UYgfC0-6YiWqrj98MNo7-4" value="/dev/ledX" style="rounded=0;whiteSpace=wrap;html=1;" parent="1" vertex="1">
                    <mxGeometry x="120" y="310" width="120" height="40" as="geometry"/>
                </mxCell>
                <mxCell id="UYgfC0-6YiWqrj98MNo7-5" style="edgeStyle=none;html=1;entryX=0.5;entryY=0;entryDx=0;entryDy=0;strokeWidth=1;startArrow=none;startFill=0;endArrow=classic;endFill=1;startSize=4;endSize=4;exitX=0.5;exitY=1;exitDx=0;exitDy=0;" parent="1" source="UYgfC0-6YiWqrj98MNo7-6" target="UYgfC0-6YiWqrj98MNo7-25" edge="1">
                    <mxGeometry relative="1" as="geometry"/>
                </mxCell>
                <mxCell id="UYgfC0-6YiWqrj98MNo7-6" value="driver" style="rounded=0;whiteSpace=wrap;html=1;" parent="1" vertex="1">
                    <mxGeometry x="200" y="550" width="120" height="40" as="geometry"/>
                </mxCell>
                <mxCell id="UYgfC0-6YiWqrj98MNo7-7" style="edgeStyle=none;html=1;strokeWidth=1;startArrow=none;startFill=0;endArrow=classic;endFill=1;startSize=4;endSize=4;" parent="1" source="UYgfC0-6YiWqrj98MNo7-8" target="UYgfC0-6YiWqrj98MNo7-28" edge="1">
                    <mxGeometry relative="1" as="geometry"/>
                </mxCell>
                <mxCell id="UYgfC0-6YiWqrj98MNo7-8" value="deivce" style="rounded=0;whiteSpace=wrap;html=1;" parent="1" vertex="1">
                    <mxGeometry x="620" y="550" width="120" height="40" as="geometry"/>
                </mxCell>
                <mxCell id="UYgfC0-6YiWqrj98MNo7-9" value="platform&amp;nbsp; bus" style="text;html=1;strokeColor=none;fillColor=none;align=center;verticalAlign=middle;whiteSpace=wrap;rounded=0;fontSize=16;horizontal=1;" parent="1" vertex="1">
                    <mxGeometry x="460" y="430" width="80" height="40" as="geometry"/>
                </mxCell>
                <mxCell id="UYgfC0-6YiWqrj98MNo7-10" value="device tree" style="rounded=0;whiteSpace=wrap;html=1;" parent="1" vertex="1">
                    <mxGeometry x="620" y="430" width="120" height="40" as="geometry"/>
                </mxCell>
                <mxCell id="UYgfC0-6YiWqrj98MNo7-11" value="/proc/deivce-tree/[node]" style="rounded=0;whiteSpace=wrap;html=1;" parent="1" vertex="1">
                    <mxGeometry x="610" y="310" width="140" height="40" as="geometry"/>
                </mxCell>
                <mxCell id="UYgfC0-6YiWqrj98MNo7-12" value="/sys/class/watchdog/*" style="rounded=0;whiteSpace=wrap;html=1;" parent="1" vertex="1">
                    <mxGeometry x="270" y="310" width="120" height="40" as="geometry"/>
                </mxCell>
                <mxCell id="UYgfC0-6YiWqrj98MNo7-13" value="/sys/bus/platform/devices/&lt;br&gt;20bc000.watchdog/*" style="rounded=0;whiteSpace=wrap;html=1;" parent="1" vertex="1">
                    <mxGeometry x="410" y="310" width="180" height="40" as="geometry"/>
                </mxCell>
                <mxCell id="UYgfC0-6YiWqrj98MNo7-14" value="" style="shape=flexArrow;endArrow=classic;startArrow=classic;html=1;endSize=4;startSize=4;strokeWidth=1;width=6;" parent="1" source="UYgfC0-6YiWqrj98MNo7-4" edge="1">
                    <mxGeometry width="100" height="100" relative="1" as="geometry">
                        <mxPoint x="80" y="330" as="sourcePoint"/>
                        <mxPoint x="180" y="230" as="targetPoint"/>
                    </mxGeometry>
                </mxCell>
                <mxCell id="UYgfC0-6YiWqrj98MNo7-15" value="" style="shape=flexArrow;endArrow=classic;startArrow=classic;html=1;endSize=4;startSize=4;strokeWidth=1;width=6;exitX=0.25;exitY=0;exitDx=0;exitDy=0;" parent="1" source="UYgfC0-6YiWqrj98MNo7-34" edge="1">
                    <mxGeometry width="100" height="100" relative="1" as="geometry">
                        <mxPoint x="179.5" y="430" as="sourcePoint"/>
                        <mxPoint x="179.5" y="350" as="targetPoint"/>
                    </mxGeometry>
                </mxCell>
                <mxCell id="UYgfC0-6YiWqrj98MNo7-16" value="" style="shape=flexArrow;endArrow=classic;startArrow=classic;html=1;endSize=0.18;startSize=4;strokeWidth=1;width=9;exitX=0.75;exitY=0;exitDx=0;exitDy=0;entryX=0.5;entryY=1;entryDx=0;entryDy=0;" parent="1" source="UYgfC0-6YiWqrj98MNo7-34" target="UYgfC0-6YiWqrj98MNo7-12" edge="1">
                    <mxGeometry width="100" height="100" relative="1" as="geometry">
                        <mxPoint x="339.5" y="430" as="sourcePoint"/>
                        <mxPoint x="339.5" y="350" as="targetPoint"/>
                    </mxGeometry>
                </mxCell>
                <mxCell id="UYgfC0-6YiWqrj98MNo7-17" value="" style="shape=flexArrow;endArrow=classic;startArrow=classic;html=1;endSize=4;startSize=4;strokeWidth=1;width=6;" parent="1" edge="1">
                    <mxGeometry width="100" height="100" relative="1" as="geometry">
                        <mxPoint x="499.5" y="430" as="sourcePoint"/>
                        <mxPoint x="499.5" y="350" as="targetPoint"/>
                    </mxGeometry>
                </mxCell>
                <mxCell id="UYgfC0-6YiWqrj98MNo7-18" value="" style="shape=flexArrow;endArrow=classic;startArrow=classic;html=1;endSize=4;startSize=4;strokeWidth=1;width=6;" parent="1" edge="1">
                    <mxGeometry width="100" height="100" relative="1" as="geometry">
                        <mxPoint x="679.5" y="430" as="sourcePoint"/>
                        <mxPoint x="679.5" y="350" as="targetPoint"/>
                    </mxGeometry>
                </mxCell>
                <mxCell id="UYgfC0-6YiWqrj98MNo7-19" value="" style="endArrow=classic;html=1;strokeWidth=1;startSize=4;endSize=4;exitX=0.5;exitY=1;exitDx=0;exitDy=0;" parent="1" source="UYgfC0-6YiWqrj98MNo7-10" target="UYgfC0-6YiWqrj98MNo7-8" edge="1">
                    <mxGeometry width="50" height="50" relative="1" as="geometry">
                        <mxPoint x="450" y="500" as="sourcePoint"/>
                        <mxPoint x="690" y="490" as="targetPoint"/>
                    </mxGeometry>
                </mxCell>
                <mxCell id="UYgfC0-6YiWqrj98MNo7-20" value="" style="endArrow=none;dashed=1;html=1;" parent="1" edge="1">
                    <mxGeometry width="50" height="50" relative="1" as="geometry">
                        <mxPoint x="40" y="700" as="sourcePoint"/>
                        <mxPoint x="800" y="700" as="targetPoint"/>
                    </mxGeometry>
                </mxCell>
                <mxCell id="UYgfC0-6YiWqrj98MNo7-21" value="应用层" style="text;html=1;strokeColor=none;fillColor=none;align=center;verticalAlign=middle;whiteSpace=wrap;rounded=0;fontSize=14;" parent="1" vertex="1">
                    <mxGeometry x="40" y="290" width="60" height="30" as="geometry"/>
                </mxCell>
                <mxCell id="UYgfC0-6YiWqrj98MNo7-22" value="内核层" style="text;html=1;strokeColor=none;fillColor=none;align=center;verticalAlign=middle;whiteSpace=wrap;rounded=0;fontSize=14;" parent="1" vertex="1">
                    <mxGeometry x="40" y="500" width="60" height="30" as="geometry"/>
                </mxCell>
                <mxCell id="UYgfC0-6YiWqrj98MNo7-23" value="wdt字符驱动框架" style="text;html=1;strokeColor=none;fillColor=none;align=center;verticalAlign=middle;whiteSpace=wrap;rounded=0;fontSize=14;" parent="1" vertex="1">
                    <mxGeometry x="500" y="190" width="160" height="60" as="geometry"/>
                </mxCell>
                <mxCell id="UYgfC0-6YiWqrj98MNo7-24" style="edgeStyle=none;html=1;entryX=0.5;entryY=0;entryDx=0;entryDy=0;strokeWidth=1;startArrow=none;startFill=0;endArrow=classic;endFill=1;startSize=4;endSize=4;" parent="1" source="UYgfC0-6YiWqrj98MNo7-25" target="UYgfC0-6YiWqrj98MNo7-26" edge="1">
                    <mxGeometry relative="1" as="geometry"/>
                </mxCell>
                <mxCell id="UYgfC0-6YiWqrj98MNo7-25" value="regmap mmio" style="rounded=0;whiteSpace=wrap;html=1;" parent="1" vertex="1">
                    <mxGeometry x="200" y="630" width="120" height="40" as="geometry"/>
                </mxCell>
                <mxCell id="UYgfC0-6YiWqrj98MNo7-26" value="internel modules&lt;br&gt;watchdog" style="rounded=0;whiteSpace=wrap;html=1;" parent="1" vertex="1">
                    <mxGeometry x="350" y="735" width="250" height="40" as="geometry"/>
                </mxCell>
                <mxCell id="UYgfC0-6YiWqrj98MNo7-27" value="物理层" style="text;html=1;strokeColor=none;fillColor=none;align=center;verticalAlign=middle;whiteSpace=wrap;rounded=0;fontSize=14;" parent="1" vertex="1">
                    <mxGeometry x="40" y="740" width="60" height="30" as="geometry"/>
                </mxCell>
                <mxCell id="UYgfC0-6YiWqrj98MNo7-28" value="register" style="rounded=0;whiteSpace=wrap;html=1;" parent="1" vertex="1">
                    <mxGeometry x="620" y="630" width="120" height="40" as="geometry"/>
                </mxCell>
                <mxCell id="UYgfC0-6YiWqrj98MNo7-29" value="" style="endArrow=classic;html=1;strokeWidth=1;startSize=4;endSize=4;exitX=0.5;exitY=1;exitDx=0;exitDy=0;entryX=0.5;entryY=0;entryDx=0;entryDy=0;" parent="1" source="UYgfC0-6YiWqrj98MNo7-28" target="UYgfC0-6YiWqrj98MNo7-26" edge="1">
                    <mxGeometry width="50" height="50" relative="1" as="geometry">
                        <mxPoint x="670" y="775" as="sourcePoint"/>
                        <mxPoint x="720" y="725" as="targetPoint"/>
                    </mxGeometry>
                </mxCell>
                <mxCell id="UYgfC0-6YiWqrj98MNo7-30" value="" style="shape=flexArrow;endArrow=none;startArrow=block;html=1;strokeWidth=1;fontSize=13;startSize=4;endSize=4;width=12;startFill=0;endFill=0;" parent="1" edge="1">
                    <mxGeometry width="100" height="100" relative="1" as="geometry">
                        <mxPoint x="500" y="670" as="sourcePoint"/>
                        <mxPoint x="500" y="470" as="targetPoint"/>
                    </mxGeometry>
                </mxCell>
                <mxCell id="UYgfC0-6YiWqrj98MNo7-31" value="" style="shape=flexArrow;endArrow=classic;startArrow=classic;html=1;strokeWidth=1;fontSize=13;startSize=4;endSize=4;width=7;" parent="1" edge="1">
                    <mxGeometry width="100" height="100" relative="1" as="geometry">
                        <mxPoint x="320" y="570" as="sourcePoint"/>
                        <mxPoint x="490" y="550" as="targetPoint"/>
                    </mxGeometry>
                </mxCell>
                <mxCell id="UYgfC0-6YiWqrj98MNo7-32" value="" style="shape=flexArrow;endArrow=classic;startArrow=classic;html=1;strokeWidth=1;fontSize=13;startSize=4;endSize=4;entryX=0;entryY=0.5;entryDx=0;entryDy=0;width=7;" parent="1" target="UYgfC0-6YiWqrj98MNo7-8" edge="1">
                    <mxGeometry width="100" height="100" relative="1" as="geometry">
                        <mxPoint x="510" y="550" as="sourcePoint"/>
                        <mxPoint x="610" y="530" as="targetPoint"/>
                    </mxGeometry>
                </mxCell>
                <mxCell id="UYgfC0-6YiWqrj98MNo7-33" style="edgeStyle=none;html=1;entryX=0.5;entryY=0;entryDx=0;entryDy=0;" parent="1" source="UYgfC0-6YiWqrj98MNo7-34" target="UYgfC0-6YiWqrj98MNo7-6" edge="1">
                    <mxGeometry relative="1" as="geometry"/>
                </mxCell>
                <mxCell id="UYgfC0-6YiWqrj98MNo7-34" value="watchdog_core.c&lt;br&gt;watchdog_dev.c" style="rounded=0;whiteSpace=wrap;html=1;" parent="1" vertex="1">
                    <mxGeometry x="130" y="470" width="260" height="40" as="geometry"/>
                </mxCell>
            </root>
        </mxGraphModel>
    </diagram>
    <diagram id="bKLfMJYMlEq_PEG27xWq" name="17.regulator">
        <mxGraphModel dx="800" dy="664" grid="1" gridSize="10" guides="1" tooltips="1" connect="1" arrows="1" fold="1" page="1" pageScale="1" pageWidth="850" pageHeight="1100" math="0" shadow="0">
            <root>
                <mxCell id="0"/>
                <mxCell id="1" parent="0"/>
                <mxCell id="dFabTN9eBIMMvmCU5uMo-1" value="" style="rounded=0;whiteSpace=wrap;html=1;dashed=1;" vertex="1" parent="1">
                    <mxGeometry x="160" y="20" width="520" height="390" as="geometry"/>
                </mxCell>
                <mxCell id="dFabTN9eBIMMvmCU5uMo-3" value="" style="rounded=0;whiteSpace=wrap;html=1;dashed=1;" vertex="1" parent="1">
                    <mxGeometry x="170" y="190" width="180" height="110" as="geometry"/>
                </mxCell>
                <mxCell id="GypLHwj21bJ9KUKWJfXI-5" style="edgeStyle=none;html=1;entryX=0.5;entryY=0;entryDx=0;entryDy=0;" edge="1" parent="1" source="3BLYTeWrqyBfmtJZFBjN-2" target="3BLYTeWrqyBfmtJZFBjN-4">
                    <mxGeometry relative="1" as="geometry"/>
                </mxCell>
                <mxCell id="3BLYTeWrqyBfmtJZFBjN-2" value="debugfs节点&lt;div&gt;/sys/kernel/debug/regulator/xxx&lt;/div&gt;" style="rounded=0;whiteSpace=wrap;html=1;" vertex="1" parent="1">
                    <mxGeometry x="320" y="40" width="200" height="40" as="geometry"/>
                </mxCell>
                <mxCell id="3BLYTeWrqyBfmtJZFBjN-3" value="" style="endArrow=none;html=1;" edge="1" parent="1">
                    <mxGeometry width="50" height="50" relative="1" as="geometry">
                        <mxPoint x="160" y="120" as="sourcePoint"/>
                        <mxPoint x="680" y="120" as="targetPoint"/>
                    </mxGeometry>
                </mxCell>
                <mxCell id="GypLHwj21bJ9KUKWJfXI-4" style="edgeStyle=none;html=1;entryX=0.5;entryY=0;entryDx=0;entryDy=0;" edge="1" parent="1" source="3BLYTeWrqyBfmtJZFBjN-4" target="GypLHwj21bJ9KUKWJfXI-3">
                    <mxGeometry relative="1" as="geometry">
                        <Array as="points">
                            <mxPoint x="300" y="180"/>
                        </Array>
                    </mxGeometry>
                </mxCell>
                <mxCell id="GypLHwj21bJ9KUKWJfXI-15" style="edgeStyle=none;html=1;exitX=0;exitY=0.5;exitDx=0;exitDy=0;entryX=0.5;entryY=0;entryDx=0;entryDy=0;" edge="1" parent="1" source="3BLYTeWrqyBfmtJZFBjN-4" target="GypLHwj21bJ9KUKWJfXI-13">
                    <mxGeometry relative="1" as="geometry">
                        <Array as="points">
                            <mxPoint x="210" y="180"/>
                        </Array>
                    </mxGeometry>
                </mxCell>
                <mxCell id="3BLYTeWrqyBfmtJZFBjN-4" value="regulator管理框架" style="rounded=0;whiteSpace=wrap;html=1;" vertex="1" parent="1">
                    <mxGeometry x="360" y="160" width="120" height="40" as="geometry"/>
                </mxCell>
                <mxCell id="GypLHwj21bJ9KUKWJfXI-2" style="edgeStyle=none;html=1;entryX=1;entryY=0.5;entryDx=0;entryDy=0;" edge="1" parent="1" source="GypLHwj21bJ9KUKWJfXI-1" target="3BLYTeWrqyBfmtJZFBjN-4">
                    <mxGeometry relative="1" as="geometry">
                        <Array as="points">
                            <mxPoint x="540" y="180"/>
                        </Array>
                    </mxGeometry>
                </mxCell>
                <mxCell id="GypLHwj21bJ9KUKWJfXI-1" value="regulator consumer&lt;div&gt;(其它驱动)&lt;/div&gt;" style="rounded=0;whiteSpace=wrap;html=1;" vertex="1" parent="1">
                    <mxGeometry x="480" y="240" width="120" height="40" as="geometry"/>
                </mxCell>
                <mxCell id="GypLHwj21bJ9KUKWJfXI-12" style="edgeStyle=none;html=1;" edge="1" parent="1" source="GypLHwj21bJ9KUKWJfXI-3" target="GypLHwj21bJ9KUKWJfXI-11">
                    <mxGeometry relative="1" as="geometry"/>
                </mxCell>
                <mxCell id="GypLHwj21bJ9KUKWJfXI-3" value="regulator driver" style="rounded=0;whiteSpace=wrap;html=1;" vertex="1" parent="1">
                    <mxGeometry x="265" y="240" width="70" height="40" as="geometry"/>
                </mxCell>
                <mxCell id="GypLHwj21bJ9KUKWJfXI-6" value="USER" style="text;html=1;align=center;verticalAlign=middle;whiteSpace=wrap;rounded=0;" vertex="1" parent="1">
                    <mxGeometry x="600" y="60" width="60" height="30" as="geometry"/>
                </mxCell>
                <mxCell id="GypLHwj21bJ9KUKWJfXI-8" value="KERNEL" style="text;html=1;align=center;verticalAlign=middle;whiteSpace=wrap;rounded=0;" vertex="1" parent="1">
                    <mxGeometry x="600" y="180" width="60" height="30" as="geometry"/>
                </mxCell>
                <mxCell id="GypLHwj21bJ9KUKWJfXI-9" value="" style="endArrow=none;html=1;" edge="1" parent="1">
                    <mxGeometry width="50" height="50" relative="1" as="geometry">
                        <mxPoint x="160" y="320" as="sourcePoint"/>
                        <mxPoint x="680" y="320" as="targetPoint"/>
                    </mxGeometry>
                </mxCell>
                <mxCell id="GypLHwj21bJ9KUKWJfXI-10" value="HARDWARE" style="text;html=1;align=center;verticalAlign=middle;whiteSpace=wrap;rounded=0;" vertex="1" parent="1">
                    <mxGeometry x="600" y="365" width="80" height="30" as="geometry"/>
                </mxCell>
                <mxCell id="GypLHwj21bJ9KUKWJfXI-11" value="PMU/PMIC....." style="rounded=0;whiteSpace=wrap;html=1;" vertex="1" parent="1">
                    <mxGeometry x="240" y="360" width="120" height="40" as="geometry"/>
                </mxCell>
                <mxCell id="GypLHwj21bJ9KUKWJfXI-14" style="edgeStyle=none;html=1;exitX=0.5;exitY=1;exitDx=0;exitDy=0;" edge="1" parent="1" source="GypLHwj21bJ9KUKWJfXI-13">
                    <mxGeometry relative="1" as="geometry">
                        <mxPoint x="300" y="360" as="targetPoint"/>
                        <Array as="points">
                            <mxPoint x="210" y="310"/>
                            <mxPoint x="300" y="310"/>
                        </Array>
                    </mxGeometry>
                </mxCell>
                <mxCell id="GypLHwj21bJ9KUKWJfXI-13" value="regulator dts" style="rounded=0;whiteSpace=wrap;html=1;" vertex="1" parent="1">
                    <mxGeometry x="180" y="240" width="60" height="40" as="geometry"/>
                </mxCell>
                <mxCell id="dFabTN9eBIMMvmCU5uMo-2" value="regulator在系统中的说明" style="text;html=1;align=center;verticalAlign=middle;whiteSpace=wrap;rounded=0;" vertex="1" parent="1">
                    <mxGeometry x="160" y="30" width="140" height="30" as="geometry"/>
                </mxCell>
                <mxCell id="dFabTN9eBIMMvmCU5uMo-4" value="provider" style="text;html=1;align=center;verticalAlign=middle;whiteSpace=wrap;rounded=0;" vertex="1" parent="1">
                    <mxGeometry x="225" y="190" width="60" height="30" as="geometry"/>
                </mxCell>
            </root>
        </mxGraphModel>
    </diagram>
    <diagram id="ip0ChMfegNccUwPlHbjc" name="19.nvmem">
        <mxGraphModel dx="960" dy="-13503" grid="1" gridSize="10" guides="1" tooltips="1" connect="1" arrows="1" fold="1" page="1" pageScale="1" pageWidth="850" pageHeight="1100" math="0" shadow="0">
            <root>
                <mxCell id="0"/>
                <mxCell id="1" parent="0"/>
                <mxCell id="yivbHM4BzmkyMFRCmZ2W-1" value="" style="rounded=0;whiteSpace=wrap;html=1;" parent="1" vertex="1">
                    <mxGeometry x="159" y="14688" width="490" height="470" as="geometry"/>
                </mxCell>
                <mxCell id="yivbHM4BzmkyMFRCmZ2W-2" style="edgeStyle=none;html=1;entryX=0.5;entryY=0;entryDx=0;entryDy=0;" parent="1" source="yivbHM4BzmkyMFRCmZ2W-3" target="yivbHM4BzmkyMFRCmZ2W-5" edge="1">
                    <mxGeometry relative="1" as="geometry"/>
                </mxCell>
                <mxCell id="yivbHM4BzmkyMFRCmZ2W-3" value="read/write" style="rounded=0;whiteSpace=wrap;html=1;" parent="1" vertex="1">
                    <mxGeometry x="369" y="14708" width="80" height="40" as="geometry"/>
                </mxCell>
                <mxCell id="yivbHM4BzmkyMFRCmZ2W-4" style="edgeStyle=none;html=1;entryX=0.5;entryY=0;entryDx=0;entryDy=0;" parent="1" source="yivbHM4BzmkyMFRCmZ2W-5" target="yivbHM4BzmkyMFRCmZ2W-7" edge="1">
                    <mxGeometry relative="1" as="geometry"/>
                </mxCell>
                <mxCell id="yivbHM4BzmkyMFRCmZ2W-5" value="/sys/devices/platform/*/*/nvmem" style="rounded=0;whiteSpace=wrap;html=1;" parent="1" vertex="1">
                    <mxGeometry x="249" y="14788" width="320" height="40" as="geometry"/>
                </mxCell>
                <mxCell id="yivbHM4BzmkyMFRCmZ2W-6" style="edgeStyle=none;html=1;entryX=0.5;entryY=0;entryDx=0;entryDy=0;" parent="1" source="yivbHM4BzmkyMFRCmZ2W-7" target="yivbHM4BzmkyMFRCmZ2W-10" edge="1">
                    <mxGeometry relative="1" as="geometry">
                        <Array as="points">
                            <mxPoint x="289" y="14888"/>
                        </Array>
                    </mxGeometry>
                </mxCell>
                <mxCell id="yivbHM4BzmkyMFRCmZ2W-7" value="NVMEM&lt;br&gt;subsystem" style="rounded=0;whiteSpace=wrap;html=1;" parent="1" vertex="1">
                    <mxGeometry x="369" y="14868" width="80" height="40" as="geometry"/>
                </mxCell>
                <mxCell id="yivbHM4BzmkyMFRCmZ2W-8" style="edgeStyle=none;html=1;entryX=0.5;entryY=0;entryDx=0;entryDy=0;" parent="1" source="yivbHM4BzmkyMFRCmZ2W-10" target="yivbHM4BzmkyMFRCmZ2W-15" edge="1">
                    <mxGeometry relative="1" as="geometry"/>
                </mxCell>
                <mxCell id="yivbHM4BzmkyMFRCmZ2W-9" style="edgeStyle=none;html=1;entryX=0.013;entryY=0.567;entryDx=0;entryDy=0;entryPerimeter=0;" parent="1" source="yivbHM4BzmkyMFRCmZ2W-10" target="yivbHM4BzmkyMFRCmZ2W-13" edge="1">
                    <mxGeometry relative="1" as="geometry">
                        <Array as="points">
                            <mxPoint x="209" y="14968"/>
                            <mxPoint x="209" y="15131"/>
                        </Array>
                    </mxGeometry>
                </mxCell>
                <mxCell id="yivbHM4BzmkyMFRCmZ2W-10" value="NVMEM&lt;br&gt;provider" style="rounded=0;whiteSpace=wrap;html=1;" parent="1" vertex="1">
                    <mxGeometry x="249" y="14948" width="80" height="40" as="geometry"/>
                </mxCell>
                <mxCell id="yivbHM4BzmkyMFRCmZ2W-11" style="edgeStyle=none;html=1;exitX=0.5;exitY=0;exitDx=0;exitDy=0;entryX=1;entryY=0.5;entryDx=0;entryDy=0;" parent="1" source="yivbHM4BzmkyMFRCmZ2W-12" target="yivbHM4BzmkyMFRCmZ2W-7" edge="1">
                    <mxGeometry relative="1" as="geometry">
                        <Array as="points">
                            <mxPoint x="529" y="14888"/>
                        </Array>
                    </mxGeometry>
                </mxCell>
                <mxCell id="yivbHM4BzmkyMFRCmZ2W-12" value="NVMEM&lt;br&gt;consumer" style="rounded=0;whiteSpace=wrap;html=1;" parent="1" vertex="1">
                    <mxGeometry x="489" y="14948" width="80" height="40" as="geometry"/>
                </mxCell>
                <mxCell id="yivbHM4BzmkyMFRCmZ2W-13" value="I2C/SPI/Reg/..." style="rounded=0;whiteSpace=wrap;html=1;" parent="1" vertex="1">
                    <mxGeometry x="239" y="15108" width="100" height="40" as="geometry"/>
                </mxCell>
                <mxCell id="yivbHM4BzmkyMFRCmZ2W-14" style="edgeStyle=none;html=1;entryX=0.5;entryY=0;entryDx=0;entryDy=0;" parent="1" source="yivbHM4BzmkyMFRCmZ2W-15" target="yivbHM4BzmkyMFRCmZ2W-13" edge="1">
                    <mxGeometry relative="1" as="geometry"/>
                </mxCell>
                <mxCell id="yivbHM4BzmkyMFRCmZ2W-15" value="RegMap" style="rounded=0;whiteSpace=wrap;html=1;" parent="1" vertex="1">
                    <mxGeometry x="249" y="15028" width="80" height="40" as="geometry"/>
                </mxCell>
                <mxCell id="yivbHM4BzmkyMFRCmZ2W-16" value="" style="endArrow=none;dashed=1;html=1;dashPattern=1 3;strokeWidth=2;" parent="1" edge="1">
                    <mxGeometry width="50" height="50" relative="1" as="geometry">
                        <mxPoint x="169" y="14848" as="sourcePoint"/>
                        <mxPoint x="649" y="14848" as="targetPoint"/>
                    </mxGeometry>
                </mxCell>
                <mxCell id="yivbHM4BzmkyMFRCmZ2W-17" value="" style="endArrow=none;dashed=1;html=1;dashPattern=1 3;strokeWidth=2;" parent="1" edge="1">
                    <mxGeometry width="50" height="50" relative="1" as="geometry">
                        <mxPoint x="169" y="15008" as="sourcePoint"/>
                        <mxPoint x="649" y="15008" as="targetPoint"/>
                    </mxGeometry>
                </mxCell>
                <mxCell id="yivbHM4BzmkyMFRCmZ2W-18" value="应用层" style="text;html=1;strokeColor=none;fillColor=none;align=center;verticalAlign=middle;whiteSpace=wrap;rounded=0;" parent="1" vertex="1">
                    <mxGeometry x="569" y="14715.5" width="60" height="25" as="geometry"/>
                </mxCell>
                <mxCell id="yivbHM4BzmkyMFRCmZ2W-19" value="核心层" style="text;html=1;strokeColor=none;fillColor=none;align=center;verticalAlign=middle;whiteSpace=wrap;rounded=0;" parent="1" vertex="1">
                    <mxGeometry x="569" y="14868" width="60" height="25" as="geometry"/>
                </mxCell>
                <mxCell id="yivbHM4BzmkyMFRCmZ2W-20" value="总线驱动" style="text;html=1;strokeColor=none;fillColor=none;align=center;verticalAlign=middle;whiteSpace=wrap;rounded=0;" parent="1" vertex="1">
                    <mxGeometry x="559" y="15018" width="60" height="25" as="geometry"/>
                </mxCell>
                <mxCell id="yivbHM4BzmkyMFRCmZ2W-21" style="edgeStyle=none;html=1;exitX=1;exitY=0.5;exitDx=0;exitDy=0;entryX=0;entryY=0.5;entryDx=0;entryDy=0;" parent="1" source="yivbHM4BzmkyMFRCmZ2W-22" target="yivbHM4BzmkyMFRCmZ2W-31" edge="1">
                    <mxGeometry relative="1" as="geometry"/>
                </mxCell>
                <mxCell id="yivbHM4BzmkyMFRCmZ2W-22" value="存储器" style="rounded=0;whiteSpace=wrap;html=1;" parent="1" vertex="1">
                    <mxGeometry x="88" y="15834" width="100" height="40" as="geometry"/>
                </mxCell>
                <mxCell id="yivbHM4BzmkyMFRCmZ2W-23" value="" style="edgeStyle=none;html=1;" parent="1" source="yivbHM4BzmkyMFRCmZ2W-25" target="yivbHM4BzmkyMFRCmZ2W-27" edge="1">
                    <mxGeometry relative="1" as="geometry"/>
                </mxCell>
                <mxCell id="yivbHM4BzmkyMFRCmZ2W-24" style="edgeStyle=none;html=1;exitX=1;exitY=0.5;exitDx=0;exitDy=0;entryX=0;entryY=0.5;entryDx=0;entryDy=0;" parent="1" source="yivbHM4BzmkyMFRCmZ2W-25" target="yivbHM4BzmkyMFRCmZ2W-45" edge="1">
                    <mxGeometry relative="1" as="geometry"/>
                </mxCell>
                <mxCell id="yivbHM4BzmkyMFRCmZ2W-25" value="易失性存储器" style="rounded=0;whiteSpace=wrap;html=1;" parent="1" vertex="1">
                    <mxGeometry x="248" y="15674" width="120" height="40" as="geometry"/>
                </mxCell>
                <mxCell id="yivbHM4BzmkyMFRCmZ2W-26" value="SRAM" style="rounded=0;whiteSpace=wrap;html=1;" parent="1" vertex="1">
                    <mxGeometry x="448" y="15604" width="80" height="40" as="geometry"/>
                </mxCell>
                <mxCell id="yivbHM4BzmkyMFRCmZ2W-27" value="SDRAM" style="rounded=0;whiteSpace=wrap;html=1;" parent="1" vertex="1">
                    <mxGeometry x="448" y="15674" width="80" height="40" as="geometry"/>
                </mxCell>
                <mxCell id="yivbHM4BzmkyMFRCmZ2W-28" style="edgeStyle=none;html=1;entryX=0;entryY=0.5;entryDx=0;entryDy=0;exitX=1;exitY=0.5;exitDx=0;exitDy=0;" parent="1" source="yivbHM4BzmkyMFRCmZ2W-31" target="yivbHM4BzmkyMFRCmZ2W-32" edge="1">
                    <mxGeometry relative="1" as="geometry"/>
                </mxCell>
                <mxCell id="yivbHM4BzmkyMFRCmZ2W-29" style="edgeStyle=none;html=1;exitX=1;exitY=0.5;exitDx=0;exitDy=0;entryX=0;entryY=0.5;entryDx=0;entryDy=0;" parent="1" source="yivbHM4BzmkyMFRCmZ2W-31" target="yivbHM4BzmkyMFRCmZ2W-36" edge="1">
                    <mxGeometry relative="1" as="geometry"/>
                </mxCell>
                <mxCell id="yivbHM4BzmkyMFRCmZ2W-30" style="edgeStyle=none;html=1;exitX=1;exitY=0.5;exitDx=0;exitDy=0;entryX=0;entryY=0.5;entryDx=0;entryDy=0;" parent="1" source="yivbHM4BzmkyMFRCmZ2W-31" target="yivbHM4BzmkyMFRCmZ2W-40" edge="1">
                    <mxGeometry relative="1" as="geometry"/>
                </mxCell>
                <mxCell id="yivbHM4BzmkyMFRCmZ2W-31" value="非易失性存储器(NVM)" style="rounded=0;whiteSpace=wrap;html=1;" parent="1" vertex="1">
                    <mxGeometry x="248" y="15994" width="120" height="40" as="geometry"/>
                </mxCell>
                <mxCell id="yivbHM4BzmkyMFRCmZ2W-32" value="Mask ROM" style="rounded=0;whiteSpace=wrap;html=1;" parent="1" vertex="1">
                    <mxGeometry x="448" y="15834" width="80" height="40" as="geometry"/>
                </mxCell>
                <mxCell id="yivbHM4BzmkyMFRCmZ2W-33" style="edgeStyle=none;html=1;entryX=0;entryY=0.5;entryDx=0;entryDy=0;exitX=1;exitY=0.5;exitDx=0;exitDy=0;" parent="1" source="yivbHM4BzmkyMFRCmZ2W-36" target="yivbHM4BzmkyMFRCmZ2W-37" edge="1">
                    <mxGeometry relative="1" as="geometry"/>
                </mxCell>
                <mxCell id="yivbHM4BzmkyMFRCmZ2W-34" style="edgeStyle=none;html=1;entryX=0;entryY=0.5;entryDx=0;entryDy=0;exitX=1;exitY=0.5;exitDx=0;exitDy=0;" parent="1" source="yivbHM4BzmkyMFRCmZ2W-36" target="yivbHM4BzmkyMFRCmZ2W-41" edge="1">
                    <mxGeometry relative="1" as="geometry">
                        <mxPoint x="518" y="16014" as="sourcePoint"/>
                    </mxGeometry>
                </mxCell>
                <mxCell id="yivbHM4BzmkyMFRCmZ2W-35" style="edgeStyle=none;html=1;exitX=1;exitY=0.5;exitDx=0;exitDy=0;entryX=0;entryY=0.5;entryDx=0;entryDy=0;" parent="1" source="yivbHM4BzmkyMFRCmZ2W-36" target="yivbHM4BzmkyMFRCmZ2W-42" edge="1">
                    <mxGeometry relative="1" as="geometry"/>
                </mxCell>
                <mxCell id="yivbHM4BzmkyMFRCmZ2W-36" value="MTP" style="rounded=0;whiteSpace=wrap;html=1;" parent="1" vertex="1">
                    <mxGeometry x="428" y="15994" width="80" height="40" as="geometry"/>
                </mxCell>
                <mxCell id="yivbHM4BzmkyMFRCmZ2W-37" value="PROM" style="rounded=0;whiteSpace=wrap;html=1;" parent="1" vertex="1">
                    <mxGeometry x="588" y="15934" width="80" height="40" as="geometry"/>
                </mxCell>
                <mxCell id="yivbHM4BzmkyMFRCmZ2W-38" style="edgeStyle=none;html=1;entryX=0;entryY=0.5;entryDx=0;entryDy=0;exitX=1;exitY=0.5;exitDx=0;exitDy=0;" parent="1" source="yivbHM4BzmkyMFRCmZ2W-40" target="yivbHM4BzmkyMFRCmZ2W-43" edge="1">
                    <mxGeometry relative="1" as="geometry"/>
                </mxCell>
                <mxCell id="yivbHM4BzmkyMFRCmZ2W-39" style="edgeStyle=none;html=1;entryX=0;entryY=0.5;entryDx=0;entryDy=0;exitX=1;exitY=0.5;exitDx=0;exitDy=0;" parent="1" source="yivbHM4BzmkyMFRCmZ2W-40" target="yivbHM4BzmkyMFRCmZ2W-44" edge="1">
                    <mxGeometry relative="1" as="geometry"/>
                </mxCell>
                <mxCell id="yivbHM4BzmkyMFRCmZ2W-40" value="OTP" style="rounded=0;whiteSpace=wrap;html=1;" parent="1" vertex="1">
                    <mxGeometry x="428" y="16174" width="80" height="40" as="geometry"/>
                </mxCell>
                <mxCell id="yivbHM4BzmkyMFRCmZ2W-41" value="NAND FLASH" style="rounded=0;whiteSpace=wrap;html=1;" parent="1" vertex="1">
                    <mxGeometry x="588" y="15994" width="80" height="40" as="geometry"/>
                </mxCell>
                <mxCell id="yivbHM4BzmkyMFRCmZ2W-42" value="NOR FLASH" style="rounded=0;whiteSpace=wrap;html=1;" parent="1" vertex="1">
                    <mxGeometry x="588" y="16054" width="80" height="40" as="geometry"/>
                </mxCell>
                <mxCell id="yivbHM4BzmkyMFRCmZ2W-43" value="eFuse OTP NVM" style="rounded=0;whiteSpace=wrap;html=1;" parent="1" vertex="1">
                    <mxGeometry x="588" y="16134" width="120" height="40" as="geometry"/>
                </mxCell>
                <mxCell id="yivbHM4BzmkyMFRCmZ2W-44" value="Anti-Fuse OTP NVM" style="rounded=0;whiteSpace=wrap;html=1;" parent="1" vertex="1">
                    <mxGeometry x="588" y="16214" width="120" height="40" as="geometry"/>
                </mxCell>
                <mxCell id="yivbHM4BzmkyMFRCmZ2W-45" value="PSARM" style="rounded=0;whiteSpace=wrap;html=1;" parent="1" vertex="1">
                    <mxGeometry x="448" y="15744" width="80" height="40" as="geometry"/>
                </mxCell>
                <mxCell id="yivbHM4BzmkyMFRCmZ2W-46" value="" style="endArrow=classic;html=1;exitX=1;exitY=0.5;exitDx=0;exitDy=0;entryX=0;entryY=0.5;entryDx=0;entryDy=0;" parent="1" source="yivbHM4BzmkyMFRCmZ2W-22" target="yivbHM4BzmkyMFRCmZ2W-25" edge="1">
                    <mxGeometry width="50" height="50" relative="1" as="geometry">
                        <mxPoint x="258" y="15784" as="sourcePoint"/>
                        <mxPoint x="308" y="15734" as="targetPoint"/>
                    </mxGeometry>
                </mxCell>
                <mxCell id="yivbHM4BzmkyMFRCmZ2W-47" value="" style="endArrow=classic;html=1;exitX=1;exitY=0.5;exitDx=0;exitDy=0;entryX=0;entryY=0.5;entryDx=0;entryDy=0;" parent="1" source="yivbHM4BzmkyMFRCmZ2W-25" target="yivbHM4BzmkyMFRCmZ2W-26" edge="1">
                    <mxGeometry width="50" height="50" relative="1" as="geometry">
                        <mxPoint x="268" y="15694" as="sourcePoint"/>
                        <mxPoint x="318" y="15644" as="targetPoint"/>
                    </mxGeometry>
                </mxCell>
                <mxCell id="yivbHM4BzmkyMFRCmZ2W-48" value="nvmem" style="text;html=1;align=center;verticalAlign=middle;whiteSpace=wrap;rounded=0;fontSize=20;" parent="1" vertex="1">
                    <mxGeometry x="17.75" y="14342" width="170.5" height="82" as="geometry"/>
                </mxCell>
            </root>
        </mxGraphModel>
    </diagram>
    <diagram id="91K69SYTYiGAdQwJLHbD" name="22.can">
        <mxGraphModel dx="960" dy="797" grid="0" gridSize="10" guides="1" tooltips="1" connect="1" arrows="1" fold="1" page="1" pageScale="1" pageWidth="850" pageHeight="1100" math="0" shadow="0">
            <root>
                <mxCell id="0"/>
                <mxCell id="1" parent="0"/>
                <mxCell id="X2Cfei2inoCmWayBkiov-1" value="" style="rounded=0;whiteSpace=wrap;html=1;" parent="1" vertex="1">
                    <mxGeometry x="160" y="1930" width="380" height="190" as="geometry"/>
                </mxCell>
                <mxCell id="X2Cfei2inoCmWayBkiov-2" value="" style="rounded=0;whiteSpace=wrap;html=1;dashed=1;" parent="1" vertex="1">
                    <mxGeometry x="198.75" y="1310" width="340" height="240" as="geometry"/>
                </mxCell>
                <mxCell id="X2Cfei2inoCmWayBkiov-3" value="" style="rounded=0;whiteSpace=wrap;html=1;dashed=1;" parent="1" vertex="1">
                    <mxGeometry x="185" y="1120" width="390" height="140" as="geometry"/>
                </mxCell>
                <mxCell id="X2Cfei2inoCmWayBkiov-4" value="" style="rounded=0;whiteSpace=wrap;html=1;dashed=1;" parent="1" vertex="1">
                    <mxGeometry x="115" y="610" width="465" height="260" as="geometry"/>
                </mxCell>
                <mxCell id="X2Cfei2inoCmWayBkiov-5" value="" style="rounded=0;whiteSpace=wrap;html=1;dashed=1;" parent="1" vertex="1">
                    <mxGeometry x="120" y="390" width="470" height="150" as="geometry"/>
                </mxCell>
                <mxCell id="X2Cfei2inoCmWayBkiov-6" value="" style="rounded=0;whiteSpace=wrap;html=1;dashed=1;" parent="1" vertex="1">
                    <mxGeometry x="140" y="90" width="410" height="240" as="geometry"/>
                </mxCell>
                <mxCell id="X2Cfei2inoCmWayBkiov-7" value="" style="rounded=0;whiteSpace=wrap;html=1;" parent="1" vertex="1">
                    <mxGeometry x="150" y="160" width="140" height="120" as="geometry"/>
                </mxCell>
                <mxCell id="X2Cfei2inoCmWayBkiov-8" style="edgeStyle=none;html=1;exitX=0;exitY=0.75;exitDx=0;exitDy=0;entryX=1;entryY=0.75;entryDx=0;entryDy=0;" parent="1" source="X2Cfei2inoCmWayBkiov-9" target="X2Cfei2inoCmWayBkiov-10" edge="1">
                    <mxGeometry relative="1" as="geometry"/>
                </mxCell>
                <mxCell id="X2Cfei2inoCmWayBkiov-9" value="CAN&lt;div&gt;收发器&lt;/div&gt;" style="rounded=0;whiteSpace=wrap;html=1;" parent="1" vertex="1">
                    <mxGeometry x="240" y="190" width="40" height="80" as="geometry"/>
                </mxCell>
                <mxCell id="X2Cfei2inoCmWayBkiov-10" value="CAN&lt;div&gt;控制器&lt;/div&gt;" style="rounded=0;whiteSpace=wrap;html=1;" parent="1" vertex="1">
                    <mxGeometry x="160" y="190" width="40" height="80" as="geometry"/>
                </mxCell>
                <mxCell id="X2Cfei2inoCmWayBkiov-11" value="" style="endArrow=classic;html=1;exitX=1;exitY=0.25;exitDx=0;exitDy=0;entryX=0;entryY=0.25;entryDx=0;entryDy=0;" parent="1" source="X2Cfei2inoCmWayBkiov-10" target="X2Cfei2inoCmWayBkiov-9" edge="1">
                    <mxGeometry width="50" height="50" relative="1" as="geometry">
                        <mxPoint x="390" y="250" as="sourcePoint"/>
                        <mxPoint x="440" y="200" as="targetPoint"/>
                    </mxGeometry>
                </mxCell>
                <mxCell id="X2Cfei2inoCmWayBkiov-12" value="CanNode" style="text;html=1;align=center;verticalAlign=middle;whiteSpace=wrap;rounded=0;" parent="1" vertex="1">
                    <mxGeometry x="150" y="160" width="60" height="30" as="geometry"/>
                </mxCell>
                <mxCell id="X2Cfei2inoCmWayBkiov-13" value="canTx" style="text;html=1;align=center;verticalAlign=middle;whiteSpace=wrap;rounded=0;" parent="1" vertex="1">
                    <mxGeometry x="190" y="190" width="60" height="30" as="geometry"/>
                </mxCell>
                <mxCell id="X2Cfei2inoCmWayBkiov-14" value="canRx" style="text;html=1;align=center;verticalAlign=middle;whiteSpace=wrap;rounded=0;" parent="1" vertex="1">
                    <mxGeometry x="190" y="230" width="60" height="30" as="geometry"/>
                </mxCell>
                <mxCell id="X2Cfei2inoCmWayBkiov-15" value="" style="rounded=0;whiteSpace=wrap;html=1;" parent="1" vertex="1">
                    <mxGeometry x="390" y="160" width="140" height="120" as="geometry"/>
                </mxCell>
                <mxCell id="X2Cfei2inoCmWayBkiov-16" style="edgeStyle=none;html=1;exitX=0;exitY=0.75;exitDx=0;exitDy=0;entryX=1;entryY=0.75;entryDx=0;entryDy=0;" parent="1" source="X2Cfei2inoCmWayBkiov-17" target="X2Cfei2inoCmWayBkiov-18" edge="1">
                    <mxGeometry relative="1" as="geometry"/>
                </mxCell>
                <mxCell id="X2Cfei2inoCmWayBkiov-17" value="CAN&lt;div&gt;控制器&lt;/div&gt;" style="rounded=0;whiteSpace=wrap;html=1;" parent="1" vertex="1">
                    <mxGeometry x="480" y="190" width="40" height="80" as="geometry"/>
                </mxCell>
                <mxCell id="X2Cfei2inoCmWayBkiov-18" value="CAN&lt;div&gt;收发器&lt;/div&gt;" style="rounded=0;whiteSpace=wrap;html=1;" parent="1" vertex="1">
                    <mxGeometry x="400" y="190" width="40" height="80" as="geometry"/>
                </mxCell>
                <mxCell id="X2Cfei2inoCmWayBkiov-19" value="" style="endArrow=classic;html=1;exitX=1;exitY=0.25;exitDx=0;exitDy=0;entryX=0;entryY=0.25;entryDx=0;entryDy=0;" parent="1" source="X2Cfei2inoCmWayBkiov-18" target="X2Cfei2inoCmWayBkiov-17" edge="1">
                    <mxGeometry width="50" height="50" relative="1" as="geometry">
                        <mxPoint x="630" y="250" as="sourcePoint"/>
                        <mxPoint x="680" y="200" as="targetPoint"/>
                    </mxGeometry>
                </mxCell>
                <mxCell id="X2Cfei2inoCmWayBkiov-20" value="CanNode" style="text;html=1;align=center;verticalAlign=middle;whiteSpace=wrap;rounded=0;" parent="1" vertex="1">
                    <mxGeometry x="390" y="160" width="60" height="30" as="geometry"/>
                </mxCell>
                <mxCell id="X2Cfei2inoCmWayBkiov-21" value="canRx" style="text;html=1;align=center;verticalAlign=middle;whiteSpace=wrap;rounded=0;" parent="1" vertex="1">
                    <mxGeometry x="430" y="190" width="60" height="30" as="geometry"/>
                </mxCell>
                <mxCell id="X2Cfei2inoCmWayBkiov-22" value="canTx" style="text;html=1;align=center;verticalAlign=middle;whiteSpace=wrap;rounded=0;" parent="1" vertex="1">
                    <mxGeometry x="430" y="230" width="60" height="30" as="geometry"/>
                </mxCell>
                <mxCell id="X2Cfei2inoCmWayBkiov-23" value="" style="shape=flexArrow;endArrow=classic;startArrow=classic;html=1;width=5.833333333333334;endSize=2.6083333333333334;endWidth=12.63888888888889;startWidth=12.63888888888889;startSize=2.6083333333333334;" parent="1" edge="1">
                    <mxGeometry width="100" height="100" relative="1" as="geometry">
                        <mxPoint x="340" y="310" as="sourcePoint"/>
                        <mxPoint x="340" y="110" as="targetPoint"/>
                    </mxGeometry>
                </mxCell>
                <mxCell id="X2Cfei2inoCmWayBkiov-24" value="差分&lt;div&gt;CAN总线&lt;/div&gt;" style="text;html=1;align=center;verticalAlign=middle;whiteSpace=wrap;rounded=0;" parent="1" vertex="1">
                    <mxGeometry x="350" y="120" width="60" height="30" as="geometry"/>
                </mxCell>
                <mxCell id="X2Cfei2inoCmWayBkiov-25" value="" style="endArrow=classic;startArrow=classic;html=1;exitX=1;exitY=0.5;exitDx=0;exitDy=0;" parent="1" source="X2Cfei2inoCmWayBkiov-9" edge="1">
                    <mxGeometry width="50" height="50" relative="1" as="geometry">
                        <mxPoint x="420" y="210" as="sourcePoint"/>
                        <mxPoint x="340" y="180" as="targetPoint"/>
                    </mxGeometry>
                </mxCell>
                <mxCell id="X2Cfei2inoCmWayBkiov-26" value="" style="endArrow=classic;startArrow=classic;html=1;entryX=0;entryY=0.5;entryDx=0;entryDy=0;" parent="1" target="X2Cfei2inoCmWayBkiov-18" edge="1">
                    <mxGeometry width="50" height="50" relative="1" as="geometry">
                        <mxPoint x="340" y="180" as="sourcePoint"/>
                        <mxPoint x="380" y="180" as="targetPoint"/>
                    </mxGeometry>
                </mxCell>
                <mxCell id="X2Cfei2inoCmWayBkiov-27" value="CAN节点连接结构" style="text;html=1;align=center;verticalAlign=middle;whiteSpace=wrap;rounded=0;" parent="1" vertex="1">
                    <mxGeometry x="150" y="100" width="60" height="30" as="geometry"/>
                </mxCell>
                <mxCell id="X2Cfei2inoCmWayBkiov-28" value="" style="endArrow=none;html=1;" parent="1" edge="1">
                    <mxGeometry width="50" height="50" relative="1" as="geometry">
                        <mxPoint x="210" y="450" as="sourcePoint"/>
                        <mxPoint x="130" y="450" as="targetPoint"/>
                    </mxGeometry>
                </mxCell>
                <mxCell id="X2Cfei2inoCmWayBkiov-29" value="" style="endArrow=none;html=1;" parent="1" edge="1">
                    <mxGeometry width="50" height="50" relative="1" as="geometry">
                        <mxPoint x="210" y="420" as="sourcePoint"/>
                        <mxPoint x="210" y="490" as="targetPoint"/>
                    </mxGeometry>
                </mxCell>
                <mxCell id="X2Cfei2inoCmWayBkiov-30" value="" style="endArrow=none;html=1;" parent="1" edge="1">
                    <mxGeometry width="50" height="50" relative="1" as="geometry">
                        <mxPoint x="210" y="490" as="sourcePoint"/>
                        <mxPoint x="230" y="490" as="targetPoint"/>
                    </mxGeometry>
                </mxCell>
                <mxCell id="X2Cfei2inoCmWayBkiov-31" value="" style="rounded=0;whiteSpace=wrap;html=1;" parent="1" vertex="1">
                    <mxGeometry x="230" y="450" width="60" height="40" as="geometry"/>
                </mxCell>
                <mxCell id="X2Cfei2inoCmWayBkiov-32" value="" style="rounded=0;whiteSpace=wrap;html=1;" parent="1" vertex="1">
                    <mxGeometry x="290" y="450" width="60" height="40" as="geometry"/>
                </mxCell>
                <mxCell id="X2Cfei2inoCmWayBkiov-33" value="" style="rounded=0;whiteSpace=wrap;html=1;" parent="1" vertex="1">
                    <mxGeometry x="350" y="450" width="60" height="40" as="geometry"/>
                </mxCell>
                <mxCell id="X2Cfei2inoCmWayBkiov-34" value="" style="rounded=0;whiteSpace=wrap;html=1;" parent="1" vertex="1">
                    <mxGeometry x="410" y="450" width="60" height="40" as="geometry"/>
                </mxCell>
                <mxCell id="X2Cfei2inoCmWayBkiov-35" value="" style="endArrow=none;html=1;" parent="1" edge="1">
                    <mxGeometry width="50" height="50" relative="1" as="geometry">
                        <mxPoint x="470" y="490" as="sourcePoint"/>
                        <mxPoint x="490" y="490" as="targetPoint"/>
                    </mxGeometry>
                </mxCell>
                <mxCell id="X2Cfei2inoCmWayBkiov-36" value="" style="endArrow=none;html=1;" parent="1" edge="1">
                    <mxGeometry width="50" height="50" relative="1" as="geometry">
                        <mxPoint x="490" y="450" as="sourcePoint"/>
                        <mxPoint x="490" y="490" as="targetPoint"/>
                    </mxGeometry>
                </mxCell>
                <mxCell id="X2Cfei2inoCmWayBkiov-37" value="" style="endArrow=none;html=1;" parent="1" edge="1">
                    <mxGeometry width="50" height="50" relative="1" as="geometry">
                        <mxPoint x="490" y="450" as="sourcePoint"/>
                        <mxPoint x="570" y="450" as="targetPoint"/>
                    </mxGeometry>
                </mxCell>
                <mxCell id="X2Cfei2inoCmWayBkiov-38" value="帧间空间" style="text;html=1;align=center;verticalAlign=middle;whiteSpace=wrap;rounded=0;" parent="1" vertex="1">
                    <mxGeometry x="140" y="420" width="60" height="20" as="geometry"/>
                </mxCell>
                <mxCell id="X2Cfei2inoCmWayBkiov-39" value="" style="endArrow=classic;html=1;exitX=0.579;exitY=-0.093;exitDx=0;exitDy=0;exitPerimeter=0;" parent="1" source="X2Cfei2inoCmWayBkiov-40" edge="1">
                    <mxGeometry width="50" height="50" relative="1" as="geometry">
                        <mxPoint x="210" y="510" as="sourcePoint"/>
                        <mxPoint x="210" y="490" as="targetPoint"/>
                    </mxGeometry>
                </mxCell>
                <mxCell id="X2Cfei2inoCmWayBkiov-40" value="帧起始" style="text;html=1;align=center;verticalAlign=middle;whiteSpace=wrap;rounded=0;" parent="1" vertex="1">
                    <mxGeometry x="170" y="520" width="70" height="20" as="geometry"/>
                </mxCell>
                <mxCell id="X2Cfei2inoCmWayBkiov-41" value="" style="endArrow=none;html=1;entryX=0;entryY=1;entryDx=0;entryDy=0;" parent="1" target="X2Cfei2inoCmWayBkiov-31" edge="1">
                    <mxGeometry width="50" height="50" relative="1" as="geometry">
                        <mxPoint x="230" y="520" as="sourcePoint"/>
                        <mxPoint x="300" y="480" as="targetPoint"/>
                        <Array as="points">
                            <mxPoint x="230" y="500"/>
                        </Array>
                    </mxGeometry>
                </mxCell>
                <mxCell id="X2Cfei2inoCmWayBkiov-42" value="" style="endArrow=none;html=1;entryX=0;entryY=1;entryDx=0;entryDy=0;" parent="1" edge="1">
                    <mxGeometry width="50" height="50" relative="1" as="geometry">
                        <mxPoint x="290" y="520" as="sourcePoint"/>
                        <mxPoint x="290" y="490" as="targetPoint"/>
                        <Array as="points">
                            <mxPoint x="290" y="500"/>
                        </Array>
                    </mxGeometry>
                </mxCell>
                <mxCell id="X2Cfei2inoCmWayBkiov-43" value="仲裁场" style="text;html=1;align=center;verticalAlign=middle;whiteSpace=wrap;rounded=0;" parent="1" vertex="1">
                    <mxGeometry x="235" y="500" width="50" height="20" as="geometry"/>
                </mxCell>
                <mxCell id="X2Cfei2inoCmWayBkiov-44" value="控制场" style="text;html=1;align=center;verticalAlign=middle;whiteSpace=wrap;rounded=0;" parent="1" vertex="1">
                    <mxGeometry x="297.5" y="500" width="45" height="20" as="geometry"/>
                </mxCell>
                <mxCell id="X2Cfei2inoCmWayBkiov-45" value="" style="endArrow=none;html=1;entryX=0;entryY=1;entryDx=0;entryDy=0;" parent="1" edge="1">
                    <mxGeometry width="50" height="50" relative="1" as="geometry">
                        <mxPoint x="349.52" y="520" as="sourcePoint"/>
                        <mxPoint x="349.52" y="490" as="targetPoint"/>
                        <Array as="points">
                            <mxPoint x="349.52" y="500"/>
                        </Array>
                    </mxGeometry>
                </mxCell>
                <mxCell id="X2Cfei2inoCmWayBkiov-46" value="数据场" style="text;html=1;align=center;verticalAlign=middle;whiteSpace=wrap;rounded=0;" parent="1" vertex="1">
                    <mxGeometry x="355" y="500" width="45" height="20" as="geometry"/>
                </mxCell>
                <mxCell id="X2Cfei2inoCmWayBkiov-47" value="" style="endArrow=none;html=1;entryX=0;entryY=1;entryDx=0;entryDy=0;" parent="1" edge="1">
                    <mxGeometry width="50" height="50" relative="1" as="geometry">
                        <mxPoint x="410" y="520" as="sourcePoint"/>
                        <mxPoint x="410" y="490" as="targetPoint"/>
                        <Array as="points">
                            <mxPoint x="410" y="500"/>
                        </Array>
                    </mxGeometry>
                </mxCell>
                <mxCell id="X2Cfei2inoCmWayBkiov-48" value="ACK场" style="text;html=1;align=center;verticalAlign=middle;whiteSpace=wrap;rounded=0;" parent="1" vertex="1">
                    <mxGeometry x="470" y="520" width="40" height="20" as="geometry"/>
                </mxCell>
                <mxCell id="X2Cfei2inoCmWayBkiov-49" value="" style="endArrow=none;html=1;entryX=0;entryY=1;entryDx=0;entryDy=0;" parent="1" edge="1">
                    <mxGeometry width="50" height="50" relative="1" as="geometry">
                        <mxPoint x="470" y="520" as="sourcePoint"/>
                        <mxPoint x="469.52" y="490" as="targetPoint"/>
                        <Array as="points">
                            <mxPoint x="469.52" y="500"/>
                        </Array>
                    </mxGeometry>
                </mxCell>
                <mxCell id="X2Cfei2inoCmWayBkiov-50" value="" style="endArrow=classic;html=1;exitX=0.579;exitY=-0.093;exitDx=0;exitDy=0;exitPerimeter=0;" parent="1" edge="1">
                    <mxGeometry width="50" height="50" relative="1" as="geometry">
                        <mxPoint x="491" y="518" as="sourcePoint"/>
                        <mxPoint x="490" y="490" as="targetPoint"/>
                    </mxGeometry>
                </mxCell>
                <mxCell id="X2Cfei2inoCmWayBkiov-51" value="" style="endArrow=none;html=1;" parent="1" edge="1">
                    <mxGeometry width="50" height="50" relative="1" as="geometry">
                        <mxPoint x="510" y="520" as="sourcePoint"/>
                        <mxPoint x="510" y="420" as="targetPoint"/>
                        <Array as="points">
                            <mxPoint x="509.71" y="460"/>
                        </Array>
                    </mxGeometry>
                </mxCell>
                <mxCell id="X2Cfei2inoCmWayBkiov-52" value="CRC场" style="text;html=1;align=center;verticalAlign=middle;whiteSpace=wrap;rounded=0;" parent="1" vertex="1">
                    <mxGeometry x="417.5" y="500" width="45" height="20" as="geometry"/>
                </mxCell>
                <mxCell id="X2Cfei2inoCmWayBkiov-53" value="数据帧" style="text;html=1;align=center;verticalAlign=middle;whiteSpace=wrap;rounded=0;" parent="1" vertex="1">
                    <mxGeometry x="340" y="420" width="45" height="20" as="geometry"/>
                </mxCell>
                <mxCell id="X2Cfei2inoCmWayBkiov-54" value="" style="endArrow=classic;html=1;" parent="1" edge="1">
                    <mxGeometry width="50" height="50" relative="1" as="geometry">
                        <mxPoint x="330" y="430" as="sourcePoint"/>
                        <mxPoint x="210" y="430" as="targetPoint"/>
                    </mxGeometry>
                </mxCell>
                <mxCell id="X2Cfei2inoCmWayBkiov-55" value="" style="endArrow=classic;html=1;" parent="1" edge="1">
                    <mxGeometry width="50" height="50" relative="1" as="geometry">
                        <mxPoint x="390" y="430" as="sourcePoint"/>
                        <mxPoint x="510" y="430" as="targetPoint"/>
                    </mxGeometry>
                </mxCell>
                <mxCell id="X2Cfei2inoCmWayBkiov-56" value="帧间空间" style="text;html=1;align=center;verticalAlign=middle;whiteSpace=wrap;rounded=0;" parent="1" vertex="1">
                    <mxGeometry x="520" y="420" width="60" height="20" as="geometry"/>
                </mxCell>
                <mxCell id="X2Cfei2inoCmWayBkiov-57" value="can数据帧格式" style="text;html=1;align=center;verticalAlign=middle;whiteSpace=wrap;rounded=0;" parent="1" vertex="1">
                    <mxGeometry x="120" y="390" width="90" height="30" as="geometry"/>
                </mxCell>
                <mxCell id="X2Cfei2inoCmWayBkiov-58" value="" style="endArrow=none;html=1;" parent="1" edge="1">
                    <mxGeometry width="50" height="50" relative="1" as="geometry">
                        <mxPoint x="120" y="690" as="sourcePoint"/>
                        <mxPoint x="160" y="690" as="targetPoint"/>
                    </mxGeometry>
                </mxCell>
                <mxCell id="X2Cfei2inoCmWayBkiov-59" value="" style="endArrow=none;html=1;" parent="1" edge="1">
                    <mxGeometry width="50" height="50" relative="1" as="geometry">
                        <mxPoint x="160" y="730" as="sourcePoint"/>
                        <mxPoint x="160" y="690" as="targetPoint"/>
                    </mxGeometry>
                </mxCell>
                <mxCell id="X2Cfei2inoCmWayBkiov-60" value="" style="endArrow=none;html=1;" parent="1" edge="1">
                    <mxGeometry width="50" height="50" relative="1" as="geometry">
                        <mxPoint x="160" y="730" as="sourcePoint"/>
                        <mxPoint x="180" y="730" as="targetPoint"/>
                    </mxGeometry>
                </mxCell>
                <mxCell id="X2Cfei2inoCmWayBkiov-61" value="SOF" style="text;html=1;align=center;verticalAlign=middle;whiteSpace=wrap;rounded=0;rotation=270;" parent="1" vertex="1">
                    <mxGeometry x="152.5" y="700" width="35" height="17.5" as="geometry"/>
                </mxCell>
                <mxCell id="X2Cfei2inoCmWayBkiov-62" value="" style="endArrow=none;html=1;" parent="1" edge="1">
                    <mxGeometry width="50" height="50" relative="1" as="geometry">
                        <mxPoint x="180" y="730" as="sourcePoint"/>
                        <mxPoint x="180" y="690" as="targetPoint"/>
                    </mxGeometry>
                </mxCell>
                <mxCell id="X2Cfei2inoCmWayBkiov-63" value="11位标识符" style="rounded=0;whiteSpace=wrap;html=1;" parent="1" vertex="1">
                    <mxGeometry x="180" y="690" width="70" height="40" as="geometry"/>
                </mxCell>
                <mxCell id="X2Cfei2inoCmWayBkiov-64" value="" style="rounded=0;whiteSpace=wrap;html=1;" parent="1" vertex="1">
                    <mxGeometry x="250" y="690" width="20" height="40" as="geometry"/>
                </mxCell>
                <mxCell id="X2Cfei2inoCmWayBkiov-65" value="RTR" style="text;html=1;align=center;verticalAlign=middle;whiteSpace=wrap;rounded=0;rotation=270;" parent="1" vertex="1">
                    <mxGeometry x="242.5" y="701.25" width="35" height="17.5" as="geometry"/>
                </mxCell>
                <mxCell id="X2Cfei2inoCmWayBkiov-66" value="IDE" style="text;html=1;align=center;verticalAlign=middle;whiteSpace=wrap;rounded=0;rotation=270;" parent="1" vertex="1">
                    <mxGeometry x="262.5" y="700" width="35" height="17.5" as="geometry"/>
                </mxCell>
                <mxCell id="X2Cfei2inoCmWayBkiov-67" value="" style="endArrow=none;html=1;exitX=1;exitY=1;exitDx=0;exitDy=0;" parent="1" source="X2Cfei2inoCmWayBkiov-64" edge="1">
                    <mxGeometry width="50" height="50" relative="1" as="geometry">
                        <mxPoint x="220" y="700" as="sourcePoint"/>
                        <mxPoint x="310" y="730" as="targetPoint"/>
                    </mxGeometry>
                </mxCell>
                <mxCell id="X2Cfei2inoCmWayBkiov-68" value="" style="endArrow=none;html=1;" parent="1" edge="1">
                    <mxGeometry width="50" height="50" relative="1" as="geometry">
                        <mxPoint x="290" y="730" as="sourcePoint"/>
                        <mxPoint x="290" y="690" as="targetPoint"/>
                    </mxGeometry>
                </mxCell>
                <mxCell id="X2Cfei2inoCmWayBkiov-69" value="r0" style="text;html=1;align=center;verticalAlign=middle;whiteSpace=wrap;rounded=0;rotation=270;" parent="1" vertex="1">
                    <mxGeometry x="280" y="700" width="35" height="17.5" as="geometry"/>
                </mxCell>
                <mxCell id="X2Cfei2inoCmWayBkiov-70" value="" style="endArrow=none;html=1;" parent="1" edge="1">
                    <mxGeometry width="50" height="50" relative="1" as="geometry">
                        <mxPoint x="310" y="730" as="sourcePoint"/>
                        <mxPoint x="310" y="690" as="targetPoint"/>
                    </mxGeometry>
                </mxCell>
                <mxCell id="X2Cfei2inoCmWayBkiov-71" value="DLC" style="rounded=0;whiteSpace=wrap;html=1;" parent="1" vertex="1">
                    <mxGeometry x="310" y="690" width="50" height="40" as="geometry"/>
                </mxCell>
                <mxCell id="X2Cfei2inoCmWayBkiov-72" value="" style="endArrow=none;html=1;exitX=1;exitY=0;exitDx=0;exitDy=0;" parent="1" source="X2Cfei2inoCmWayBkiov-71" edge="1">
                    <mxGeometry width="50" height="50" relative="1" as="geometry">
                        <mxPoint x="370" y="710" as="sourcePoint"/>
                        <mxPoint x="430" y="690" as="targetPoint"/>
                    </mxGeometry>
                </mxCell>
                <mxCell id="X2Cfei2inoCmWayBkiov-73" value="" style="endArrow=none;html=1;exitX=1;exitY=0;exitDx=0;exitDy=0;" parent="1" edge="1">
                    <mxGeometry width="50" height="50" relative="1" as="geometry">
                        <mxPoint x="360" y="730" as="sourcePoint"/>
                        <mxPoint x="430" y="730" as="targetPoint"/>
                    </mxGeometry>
                </mxCell>
                <mxCell id="X2Cfei2inoCmWayBkiov-74" value="" style="endArrow=none;html=1;exitX=0;exitY=0;exitDx=0;exitDy=0;" parent="1" source="X2Cfei2inoCmWayBkiov-63" edge="1">
                    <mxGeometry width="50" height="50" relative="1" as="geometry">
                        <mxPoint x="220" y="710" as="sourcePoint"/>
                        <mxPoint x="180" y="670" as="targetPoint"/>
                    </mxGeometry>
                </mxCell>
                <mxCell id="X2Cfei2inoCmWayBkiov-75" value="" style="endArrow=none;html=1;exitX=0;exitY=0;exitDx=0;exitDy=0;" parent="1" edge="1">
                    <mxGeometry width="50" height="50" relative="1" as="geometry">
                        <mxPoint x="270" y="690" as="sourcePoint"/>
                        <mxPoint x="270" y="670" as="targetPoint"/>
                    </mxGeometry>
                </mxCell>
                <mxCell id="X2Cfei2inoCmWayBkiov-76" value="" style="endArrow=classic;html=1;" parent="1" edge="1">
                    <mxGeometry width="50" height="50" relative="1" as="geometry">
                        <mxPoint x="200" y="680" as="sourcePoint"/>
                        <mxPoint x="180" y="680" as="targetPoint"/>
                    </mxGeometry>
                </mxCell>
                <mxCell id="X2Cfei2inoCmWayBkiov-77" value="" style="endArrow=classic;html=1;" parent="1" edge="1">
                    <mxGeometry width="50" height="50" relative="1" as="geometry">
                        <mxPoint x="250" y="680" as="sourcePoint"/>
                        <mxPoint x="270" y="680" as="targetPoint"/>
                    </mxGeometry>
                </mxCell>
                <mxCell id="X2Cfei2inoCmWayBkiov-78" value="仲裁场" style="text;html=1;align=center;verticalAlign=middle;whiteSpace=wrap;rounded=0;" parent="1" vertex="1">
                    <mxGeometry x="200" y="670" width="50" height="20" as="geometry"/>
                </mxCell>
                <mxCell id="X2Cfei2inoCmWayBkiov-79" value="" style="endArrow=none;html=1;" parent="1" edge="1">
                    <mxGeometry width="50" height="50" relative="1" as="geometry">
                        <mxPoint x="360" y="690" as="sourcePoint"/>
                        <mxPoint x="360" y="670" as="targetPoint"/>
                    </mxGeometry>
                </mxCell>
                <mxCell id="X2Cfei2inoCmWayBkiov-80" style="edgeStyle=none;html=1;" parent="1" source="X2Cfei2inoCmWayBkiov-82" edge="1">
                    <mxGeometry relative="1" as="geometry">
                        <mxPoint x="360" y="680" as="targetPoint"/>
                    </mxGeometry>
                </mxCell>
                <mxCell id="X2Cfei2inoCmWayBkiov-81" style="edgeStyle=none;html=1;exitX=0;exitY=0.5;exitDx=0;exitDy=0;" parent="1" source="X2Cfei2inoCmWayBkiov-82" edge="1">
                    <mxGeometry relative="1" as="geometry">
                        <mxPoint x="270" y="680.1016949152541" as="targetPoint"/>
                    </mxGeometry>
                </mxCell>
                <mxCell id="X2Cfei2inoCmWayBkiov-82" value="控制场" style="text;html=1;align=center;verticalAlign=middle;whiteSpace=wrap;rounded=0;" parent="1" vertex="1">
                    <mxGeometry x="290" y="670" width="50" height="20" as="geometry"/>
                </mxCell>
                <mxCell id="X2Cfei2inoCmWayBkiov-83" style="edgeStyle=none;html=1;" parent="1" source="X2Cfei2inoCmWayBkiov-84" edge="1">
                    <mxGeometry relative="1" as="geometry">
                        <mxPoint x="360" y="680" as="targetPoint"/>
                    </mxGeometry>
                </mxCell>
                <mxCell id="X2Cfei2inoCmWayBkiov-84" value="数据场" style="text;html=1;align=center;verticalAlign=middle;whiteSpace=wrap;rounded=0;" parent="1" vertex="1">
                    <mxGeometry x="380" y="670" width="45" height="20" as="geometry"/>
                </mxCell>
                <mxCell id="X2Cfei2inoCmWayBkiov-85" value="标准帧" style="text;html=1;align=center;verticalAlign=middle;whiteSpace=wrap;rounded=0;" parent="1" vertex="1">
                    <mxGeometry x="115" y="640" width="60" height="30" as="geometry"/>
                </mxCell>
                <mxCell id="X2Cfei2inoCmWayBkiov-86" value="扩展帧" style="text;html=1;align=center;verticalAlign=middle;whiteSpace=wrap;rounded=0;" parent="1" vertex="1">
                    <mxGeometry x="110" y="750" width="60" height="30" as="geometry"/>
                </mxCell>
                <mxCell id="X2Cfei2inoCmWayBkiov-87" value="" style="endArrow=none;html=1;" parent="1" edge="1">
                    <mxGeometry width="50" height="50" relative="1" as="geometry">
                        <mxPoint x="120" y="800" as="sourcePoint"/>
                        <mxPoint x="160" y="800" as="targetPoint"/>
                    </mxGeometry>
                </mxCell>
                <mxCell id="X2Cfei2inoCmWayBkiov-88" value="" style="endArrow=none;html=1;" parent="1" edge="1">
                    <mxGeometry width="50" height="50" relative="1" as="geometry">
                        <mxPoint x="160" y="840" as="sourcePoint"/>
                        <mxPoint x="160" y="800" as="targetPoint"/>
                    </mxGeometry>
                </mxCell>
                <mxCell id="X2Cfei2inoCmWayBkiov-89" value="" style="endArrow=none;html=1;" parent="1" edge="1">
                    <mxGeometry width="50" height="50" relative="1" as="geometry">
                        <mxPoint x="160" y="840" as="sourcePoint"/>
                        <mxPoint x="180" y="840" as="targetPoint"/>
                    </mxGeometry>
                </mxCell>
                <mxCell id="X2Cfei2inoCmWayBkiov-90" value="SOF" style="text;html=1;align=center;verticalAlign=middle;whiteSpace=wrap;rounded=0;rotation=270;" parent="1" vertex="1">
                    <mxGeometry x="152.5" y="810" width="35" height="17.5" as="geometry"/>
                </mxCell>
                <mxCell id="X2Cfei2inoCmWayBkiov-91" value="" style="endArrow=none;html=1;" parent="1" edge="1">
                    <mxGeometry width="50" height="50" relative="1" as="geometry">
                        <mxPoint x="180" y="840" as="sourcePoint"/>
                        <mxPoint x="180" y="800" as="targetPoint"/>
                    </mxGeometry>
                </mxCell>
                <mxCell id="X2Cfei2inoCmWayBkiov-92" value="11位标识符" style="rounded=0;whiteSpace=wrap;html=1;" parent="1" vertex="1">
                    <mxGeometry x="180" y="800" width="70" height="40" as="geometry"/>
                </mxCell>
                <mxCell id="X2Cfei2inoCmWayBkiov-93" value="SRR" style="text;html=1;align=center;verticalAlign=middle;whiteSpace=wrap;rounded=0;rotation=270;" parent="1" vertex="1">
                    <mxGeometry x="242.5" y="811.25" width="35" height="17.5" as="geometry"/>
                </mxCell>
                <mxCell id="X2Cfei2inoCmWayBkiov-94" value="r1" style="text;html=1;align=center;verticalAlign=middle;whiteSpace=wrap;rounded=0;rotation=270;" parent="1" vertex="1">
                    <mxGeometry x="371.25" y="812.5" width="35" height="12.5" as="geometry"/>
                </mxCell>
                <mxCell id="X2Cfei2inoCmWayBkiov-95" value="" style="endArrow=none;html=1;exitX=1;exitY=1;exitDx=0;exitDy=0;" parent="1" source="X2Cfei2inoCmWayBkiov-118" edge="1">
                    <mxGeometry width="50" height="50" relative="1" as="geometry">
                        <mxPoint x="383.75" y="840" as="sourcePoint"/>
                        <mxPoint x="423.75" y="840" as="targetPoint"/>
                    </mxGeometry>
                </mxCell>
                <mxCell id="X2Cfei2inoCmWayBkiov-96" value="" style="endArrow=none;html=1;" parent="1" edge="1">
                    <mxGeometry width="50" height="50" relative="1" as="geometry">
                        <mxPoint x="400" y="840" as="sourcePoint"/>
                        <mxPoint x="400" y="800" as="targetPoint"/>
                    </mxGeometry>
                </mxCell>
                <mxCell id="X2Cfei2inoCmWayBkiov-97" value="r0" style="text;html=1;align=center;verticalAlign=middle;whiteSpace=wrap;rounded=0;rotation=270;" parent="1" vertex="1">
                    <mxGeometry x="395" y="813.13" width="35" height="14.37" as="geometry"/>
                </mxCell>
                <mxCell id="X2Cfei2inoCmWayBkiov-98" value="" style="endArrow=none;html=1;" parent="1" edge="1">
                    <mxGeometry width="50" height="50" relative="1" as="geometry">
                        <mxPoint x="423.75" y="840" as="sourcePoint"/>
                        <mxPoint x="423.75" y="800" as="targetPoint"/>
                    </mxGeometry>
                </mxCell>
                <mxCell id="X2Cfei2inoCmWayBkiov-99" value="DLC" style="rounded=0;whiteSpace=wrap;html=1;" parent="1" vertex="1">
                    <mxGeometry x="423.75" y="800" width="50" height="40" as="geometry"/>
                </mxCell>
                <mxCell id="X2Cfei2inoCmWayBkiov-100" value="" style="endArrow=none;html=1;exitX=1;exitY=0;exitDx=0;exitDy=0;" parent="1" source="X2Cfei2inoCmWayBkiov-99" edge="1">
                    <mxGeometry width="50" height="50" relative="1" as="geometry">
                        <mxPoint x="483.75" y="820" as="sourcePoint"/>
                        <mxPoint x="543.75" y="800" as="targetPoint"/>
                    </mxGeometry>
                </mxCell>
                <mxCell id="X2Cfei2inoCmWayBkiov-101" value="" style="endArrow=none;html=1;exitX=1;exitY=0;exitDx=0;exitDy=0;" parent="1" edge="1">
                    <mxGeometry width="50" height="50" relative="1" as="geometry">
                        <mxPoint x="473.75" y="840" as="sourcePoint"/>
                        <mxPoint x="543.75" y="840" as="targetPoint"/>
                    </mxGeometry>
                </mxCell>
                <mxCell id="X2Cfei2inoCmWayBkiov-102" value="" style="endArrow=none;html=1;exitX=0;exitY=0;exitDx=0;exitDy=0;" parent="1" source="X2Cfei2inoCmWayBkiov-92" edge="1">
                    <mxGeometry width="50" height="50" relative="1" as="geometry">
                        <mxPoint x="220" y="820" as="sourcePoint"/>
                        <mxPoint x="180" y="780" as="targetPoint"/>
                    </mxGeometry>
                </mxCell>
                <mxCell id="X2Cfei2inoCmWayBkiov-103" value="" style="endArrow=none;html=1;exitX=0;exitY=0;exitDx=0;exitDy=0;" parent="1" edge="1">
                    <mxGeometry width="50" height="50" relative="1" as="geometry">
                        <mxPoint x="379.72" y="800" as="sourcePoint"/>
                        <mxPoint x="379.72" y="780" as="targetPoint"/>
                    </mxGeometry>
                </mxCell>
                <mxCell id="X2Cfei2inoCmWayBkiov-104" value="" style="endArrow=classic;html=1;" parent="1" edge="1">
                    <mxGeometry width="50" height="50" relative="1" as="geometry">
                        <mxPoint x="260" y="790" as="sourcePoint"/>
                        <mxPoint x="180" y="790" as="targetPoint"/>
                    </mxGeometry>
                </mxCell>
                <mxCell id="X2Cfei2inoCmWayBkiov-105" value="" style="endArrow=classic;html=1;exitX=1;exitY=0.5;exitDx=0;exitDy=0;" parent="1" source="X2Cfei2inoCmWayBkiov-106" edge="1">
                    <mxGeometry width="50" height="50" relative="1" as="geometry">
                        <mxPoint x="315" y="789.88" as="sourcePoint"/>
                        <mxPoint x="380" y="790" as="targetPoint"/>
                    </mxGeometry>
                </mxCell>
                <mxCell id="X2Cfei2inoCmWayBkiov-106" value="仲裁场" style="text;html=1;align=center;verticalAlign=middle;whiteSpace=wrap;rounded=0;" parent="1" vertex="1">
                    <mxGeometry x="260" y="780" width="50" height="20" as="geometry"/>
                </mxCell>
                <mxCell id="X2Cfei2inoCmWayBkiov-107" value="" style="endArrow=none;html=1;" parent="1" edge="1">
                    <mxGeometry width="50" height="50" relative="1" as="geometry">
                        <mxPoint x="473.75" y="800" as="sourcePoint"/>
                        <mxPoint x="473.75" y="780" as="targetPoint"/>
                    </mxGeometry>
                </mxCell>
                <mxCell id="X2Cfei2inoCmWayBkiov-108" style="edgeStyle=none;html=1;" parent="1" source="X2Cfei2inoCmWayBkiov-110" edge="1">
                    <mxGeometry relative="1" as="geometry">
                        <mxPoint x="473.75" y="790" as="targetPoint"/>
                    </mxGeometry>
                </mxCell>
                <mxCell id="X2Cfei2inoCmWayBkiov-109" style="edgeStyle=none;html=1;" parent="1" edge="1">
                    <mxGeometry relative="1" as="geometry">
                        <mxPoint x="380" y="790" as="targetPoint"/>
                        <mxPoint x="400" y="790" as="sourcePoint"/>
                    </mxGeometry>
                </mxCell>
                <mxCell id="X2Cfei2inoCmWayBkiov-110" value="控制场" style="text;html=1;align=center;verticalAlign=middle;whiteSpace=wrap;rounded=0;" parent="1" vertex="1">
                    <mxGeometry x="400" y="780" width="50" height="20" as="geometry"/>
                </mxCell>
                <mxCell id="X2Cfei2inoCmWayBkiov-111" style="edgeStyle=none;html=1;" parent="1" source="X2Cfei2inoCmWayBkiov-112" edge="1">
                    <mxGeometry relative="1" as="geometry">
                        <mxPoint x="473.75" y="790" as="targetPoint"/>
                    </mxGeometry>
                </mxCell>
                <mxCell id="X2Cfei2inoCmWayBkiov-112" value="数据场" style="text;html=1;align=center;verticalAlign=middle;whiteSpace=wrap;rounded=0;" parent="1" vertex="1">
                    <mxGeometry x="493.75" y="780" width="45" height="20" as="geometry"/>
                </mxCell>
                <mxCell id="X2Cfei2inoCmWayBkiov-113" value="" style="endArrow=none;html=1;exitX=1;exitY=1;exitDx=0;exitDy=0;" parent="1" edge="1">
                    <mxGeometry width="50" height="50" relative="1" as="geometry">
                        <mxPoint x="245" y="800" as="sourcePoint"/>
                        <mxPoint x="290" y="800" as="targetPoint"/>
                    </mxGeometry>
                </mxCell>
                <mxCell id="X2Cfei2inoCmWayBkiov-114" value="" style="endArrow=none;html=1;" parent="1" edge="1">
                    <mxGeometry width="50" height="50" relative="1" as="geometry">
                        <mxPoint x="269" y="800" as="sourcePoint"/>
                        <mxPoint x="269" y="840" as="targetPoint"/>
                    </mxGeometry>
                </mxCell>
                <mxCell id="X2Cfei2inoCmWayBkiov-115" value="IDE" style="text;html=1;align=center;verticalAlign=middle;whiteSpace=wrap;rounded=0;rotation=270;" parent="1" vertex="1">
                    <mxGeometry x="266.25" y="810" width="27.5" height="17.5" as="geometry"/>
                </mxCell>
                <mxCell id="X2Cfei2inoCmWayBkiov-116" value="" style="endArrow=none;html=1;" parent="1" edge="1">
                    <mxGeometry width="50" height="50" relative="1" as="geometry">
                        <mxPoint x="290" y="800" as="sourcePoint"/>
                        <mxPoint x="290" y="840" as="targetPoint"/>
                    </mxGeometry>
                </mxCell>
                <mxCell id="X2Cfei2inoCmWayBkiov-117" value="18位标识符" style="rounded=0;whiteSpace=wrap;html=1;" parent="1" vertex="1">
                    <mxGeometry x="290" y="800" width="70" height="40" as="geometry"/>
                </mxCell>
                <mxCell id="X2Cfei2inoCmWayBkiov-118" value="" style="rounded=0;whiteSpace=wrap;html=1;" parent="1" vertex="1">
                    <mxGeometry x="360" y="800" width="20" height="40" as="geometry"/>
                </mxCell>
                <mxCell id="X2Cfei2inoCmWayBkiov-119" value="RTR" style="text;html=1;align=center;verticalAlign=middle;whiteSpace=wrap;rounded=0;rotation=270;" parent="1" vertex="1">
                    <mxGeometry x="352.5" y="811.25" width="35" height="17.5" as="geometry"/>
                </mxCell>
                <mxCell id="X2Cfei2inoCmWayBkiov-120" value="can帧内部格式" style="text;html=1;align=center;verticalAlign=middle;whiteSpace=wrap;rounded=0;" parent="1" vertex="1">
                    <mxGeometry x="120" y="610" width="90" height="30" as="geometry"/>
                </mxCell>
                <mxCell id="X2Cfei2inoCmWayBkiov-121" value="" style="endArrow=none;html=1;" parent="1" edge="1">
                    <mxGeometry width="50" height="50" relative="1" as="geometry">
                        <mxPoint x="227.5" y="1180" as="sourcePoint"/>
                        <mxPoint x="195" y="1180" as="targetPoint"/>
                    </mxGeometry>
                </mxCell>
                <mxCell id="X2Cfei2inoCmWayBkiov-122" value="" style="endArrow=none;html=1;" parent="1" edge="1">
                    <mxGeometry width="50" height="50" relative="1" as="geometry">
                        <mxPoint x="227.5" y="1150" as="sourcePoint"/>
                        <mxPoint x="227.5" y="1250" as="targetPoint"/>
                    </mxGeometry>
                </mxCell>
                <mxCell id="X2Cfei2inoCmWayBkiov-123" value="" style="endArrow=none;html=1;" parent="1" edge="1">
                    <mxGeometry width="50" height="50" relative="1" as="geometry">
                        <mxPoint x="227.5" y="1220" as="sourcePoint"/>
                        <mxPoint x="417.5" y="1220" as="targetPoint"/>
                    </mxGeometry>
                </mxCell>
                <mxCell id="X2Cfei2inoCmWayBkiov-124" value="" style="endArrow=none;html=1;" parent="1" edge="1">
                    <mxGeometry width="50" height="50" relative="1" as="geometry">
                        <mxPoint x="417.5" y="1180" as="sourcePoint"/>
                        <mxPoint x="417.5" y="1250" as="targetPoint"/>
                    </mxGeometry>
                </mxCell>
                <mxCell id="X2Cfei2inoCmWayBkiov-125" value="" style="endArrow=none;html=1;" parent="1" edge="1">
                    <mxGeometry width="50" height="50" relative="1" as="geometry">
                        <mxPoint x="417.5" y="1180" as="sourcePoint"/>
                        <mxPoint x="565" y="1180" as="targetPoint"/>
                    </mxGeometry>
                </mxCell>
                <mxCell id="X2Cfei2inoCmWayBkiov-126" value="" style="endArrow=none;html=1;" parent="1" edge="1">
                    <mxGeometry width="50" height="50" relative="1" as="geometry">
                        <mxPoint x="537.79" y="1250" as="sourcePoint"/>
                        <mxPoint x="537.79" y="1150" as="targetPoint"/>
                        <Array as="points">
                            <mxPoint x="537.5" y="1190"/>
                        </Array>
                    </mxGeometry>
                </mxCell>
                <mxCell id="X2Cfei2inoCmWayBkiov-127" value="" style="endArrow=classic;html=1;exitX=0.049;exitY=0.506;exitDx=0;exitDy=0;exitPerimeter=0;" parent="1" source="X2Cfei2inoCmWayBkiov-134" edge="1">
                    <mxGeometry width="50" height="50" relative="1" as="geometry">
                        <mxPoint x="352.5" y="1160" as="sourcePoint"/>
                        <mxPoint x="227.5" y="1160" as="targetPoint"/>
                    </mxGeometry>
                </mxCell>
                <mxCell id="X2Cfei2inoCmWayBkiov-128" value="" style="endArrow=classic;html=1;exitX=1;exitY=0.5;exitDx=0;exitDy=0;" parent="1" source="X2Cfei2inoCmWayBkiov-134" edge="1">
                    <mxGeometry width="50" height="50" relative="1" as="geometry">
                        <mxPoint x="412.5" y="1160" as="sourcePoint"/>
                        <mxPoint x="537.5" y="1160" as="targetPoint"/>
                    </mxGeometry>
                </mxCell>
                <mxCell id="X2Cfei2inoCmWayBkiov-129" value="can错误帧格式" style="text;html=1;align=center;verticalAlign=middle;whiteSpace=wrap;rounded=0;" parent="1" vertex="1">
                    <mxGeometry x="190" y="1120" width="90" height="30" as="geometry"/>
                </mxCell>
                <mxCell id="X2Cfei2inoCmWayBkiov-130" value="" style="endArrow=none;html=1;" parent="1" edge="1">
                    <mxGeometry width="50" height="50" relative="1" as="geometry">
                        <mxPoint x="337.5" y="1190" as="sourcePoint"/>
                        <mxPoint x="338" y="1220" as="targetPoint"/>
                    </mxGeometry>
                </mxCell>
                <mxCell id="X2Cfei2inoCmWayBkiov-131" style="edgeStyle=none;html=1;" parent="1" source="X2Cfei2inoCmWayBkiov-133" edge="1">
                    <mxGeometry relative="1" as="geometry">
                        <mxPoint x="337.5" y="1200" as="targetPoint"/>
                    </mxGeometry>
                </mxCell>
                <mxCell id="X2Cfei2inoCmWayBkiov-132" style="edgeStyle=none;html=1;" parent="1" source="X2Cfei2inoCmWayBkiov-133" edge="1">
                    <mxGeometry relative="1" as="geometry">
                        <mxPoint x="227.5" y="1200" as="targetPoint"/>
                    </mxGeometry>
                </mxCell>
                <mxCell id="X2Cfei2inoCmWayBkiov-133" value="错误标志" style="text;html=1;align=center;verticalAlign=middle;whiteSpace=wrap;rounded=0;" parent="1" vertex="1">
                    <mxGeometry x="257.5" y="1190" width="50" height="20" as="geometry"/>
                </mxCell>
                <mxCell id="X2Cfei2inoCmWayBkiov-134" value="错误帧" style="text;html=1;align=center;verticalAlign=middle;whiteSpace=wrap;rounded=0;" parent="1" vertex="1">
                    <mxGeometry x="355" y="1150" width="50" height="20" as="geometry"/>
                </mxCell>
                <mxCell id="X2Cfei2inoCmWayBkiov-135" style="edgeStyle=none;html=1;" parent="1" source="X2Cfei2inoCmWayBkiov-137" edge="1">
                    <mxGeometry relative="1" as="geometry">
                        <mxPoint x="417.5" y="1240" as="targetPoint"/>
                    </mxGeometry>
                </mxCell>
                <mxCell id="X2Cfei2inoCmWayBkiov-136" style="edgeStyle=none;html=1;" parent="1" source="X2Cfei2inoCmWayBkiov-137" edge="1">
                    <mxGeometry relative="1" as="geometry">
                        <mxPoint x="227.5" y="1240" as="targetPoint"/>
                    </mxGeometry>
                </mxCell>
                <mxCell id="X2Cfei2inoCmWayBkiov-137" value="错误叠加标志" style="text;html=1;align=center;verticalAlign=middle;whiteSpace=wrap;rounded=0;" parent="1" vertex="1">
                    <mxGeometry x="277.5" y="1230" width="80" height="20" as="geometry"/>
                </mxCell>
                <mxCell id="X2Cfei2inoCmWayBkiov-138" style="edgeStyle=none;html=1;" parent="1" source="X2Cfei2inoCmWayBkiov-140" edge="1">
                    <mxGeometry relative="1" as="geometry">
                        <mxPoint x="417.5" y="1240" as="targetPoint"/>
                    </mxGeometry>
                </mxCell>
                <mxCell id="X2Cfei2inoCmWayBkiov-139" style="edgeStyle=none;html=1;" parent="1" source="X2Cfei2inoCmWayBkiov-140" edge="1">
                    <mxGeometry relative="1" as="geometry">
                        <mxPoint x="537.5" y="1240" as="targetPoint"/>
                    </mxGeometry>
                </mxCell>
                <mxCell id="X2Cfei2inoCmWayBkiov-140" value="错误界定符" style="text;html=1;align=center;verticalAlign=middle;whiteSpace=wrap;rounded=0;" parent="1" vertex="1">
                    <mxGeometry x="445" y="1230" width="70" height="20" as="geometry"/>
                </mxCell>
                <mxCell id="X2Cfei2inoCmWayBkiov-141" value="" style="endArrow=none;html=1;" parent="1" edge="1">
                    <mxGeometry width="50" height="50" relative="1" as="geometry">
                        <mxPoint x="537.5" y="1220" as="sourcePoint"/>
                        <mxPoint x="565" y="1220" as="targetPoint"/>
                    </mxGeometry>
                </mxCell>
                <mxCell id="X2Cfei2inoCmWayBkiov-142" value="" style="rounded=0;whiteSpace=wrap;html=1;dashed=1;" parent="1" vertex="1">
                    <mxGeometry x="175" y="1610" width="390" height="140" as="geometry"/>
                </mxCell>
                <mxCell id="X2Cfei2inoCmWayBkiov-143" value="" style="endArrow=none;html=1;" parent="1" edge="1">
                    <mxGeometry width="50" height="50" relative="1" as="geometry">
                        <mxPoint x="217.5" y="1670" as="sourcePoint"/>
                        <mxPoint x="185" y="1670" as="targetPoint"/>
                    </mxGeometry>
                </mxCell>
                <mxCell id="X2Cfei2inoCmWayBkiov-144" value="" style="endArrow=none;html=1;" parent="1" edge="1">
                    <mxGeometry width="50" height="50" relative="1" as="geometry">
                        <mxPoint x="217.5" y="1640" as="sourcePoint"/>
                        <mxPoint x="217.5" y="1740" as="targetPoint"/>
                    </mxGeometry>
                </mxCell>
                <mxCell id="X2Cfei2inoCmWayBkiov-145" value="" style="endArrow=none;html=1;" parent="1" edge="1">
                    <mxGeometry width="50" height="50" relative="1" as="geometry">
                        <mxPoint x="217.5" y="1710" as="sourcePoint"/>
                        <mxPoint x="407.5" y="1710" as="targetPoint"/>
                    </mxGeometry>
                </mxCell>
                <mxCell id="X2Cfei2inoCmWayBkiov-146" value="" style="endArrow=none;html=1;" parent="1" edge="1">
                    <mxGeometry width="50" height="50" relative="1" as="geometry">
                        <mxPoint x="407.5" y="1670" as="sourcePoint"/>
                        <mxPoint x="407.5" y="1740" as="targetPoint"/>
                    </mxGeometry>
                </mxCell>
                <mxCell id="X2Cfei2inoCmWayBkiov-147" value="" style="endArrow=none;html=1;" parent="1" edge="1">
                    <mxGeometry width="50" height="50" relative="1" as="geometry">
                        <mxPoint x="407.5" y="1670" as="sourcePoint"/>
                        <mxPoint x="555" y="1670" as="targetPoint"/>
                    </mxGeometry>
                </mxCell>
                <mxCell id="X2Cfei2inoCmWayBkiov-148" value="" style="endArrow=none;html=1;" parent="1" edge="1">
                    <mxGeometry width="50" height="50" relative="1" as="geometry">
                        <mxPoint x="527.79" y="1740" as="sourcePoint"/>
                        <mxPoint x="527.79" y="1640" as="targetPoint"/>
                        <Array as="points">
                            <mxPoint x="527.5" y="1680"/>
                        </Array>
                    </mxGeometry>
                </mxCell>
                <mxCell id="X2Cfei2inoCmWayBkiov-149" value="" style="endArrow=classic;html=1;exitX=0.049;exitY=0.506;exitDx=0;exitDy=0;exitPerimeter=0;" parent="1" source="X2Cfei2inoCmWayBkiov-156" edge="1">
                    <mxGeometry width="50" height="50" relative="1" as="geometry">
                        <mxPoint x="342.5" y="1650" as="sourcePoint"/>
                        <mxPoint x="217.5" y="1650" as="targetPoint"/>
                    </mxGeometry>
                </mxCell>
                <mxCell id="X2Cfei2inoCmWayBkiov-150" value="" style="endArrow=classic;html=1;exitX=1;exitY=0.5;exitDx=0;exitDy=0;" parent="1" source="X2Cfei2inoCmWayBkiov-156" edge="1">
                    <mxGeometry width="50" height="50" relative="1" as="geometry">
                        <mxPoint x="402.5" y="1650" as="sourcePoint"/>
                        <mxPoint x="527.5" y="1650" as="targetPoint"/>
                    </mxGeometry>
                </mxCell>
                <mxCell id="X2Cfei2inoCmWayBkiov-151" value="can过载帧格式" style="text;html=1;align=center;verticalAlign=middle;whiteSpace=wrap;rounded=0;" parent="1" vertex="1">
                    <mxGeometry x="180" y="1610" width="90" height="30" as="geometry"/>
                </mxCell>
                <mxCell id="X2Cfei2inoCmWayBkiov-152" value="" style="endArrow=none;html=1;" parent="1" edge="1">
                    <mxGeometry width="50" height="50" relative="1" as="geometry">
                        <mxPoint x="327.5" y="1680" as="sourcePoint"/>
                        <mxPoint x="328" y="1710" as="targetPoint"/>
                    </mxGeometry>
                </mxCell>
                <mxCell id="X2Cfei2inoCmWayBkiov-153" style="edgeStyle=none;html=1;" parent="1" source="X2Cfei2inoCmWayBkiov-155" edge="1">
                    <mxGeometry relative="1" as="geometry">
                        <mxPoint x="327.5" y="1690" as="targetPoint"/>
                    </mxGeometry>
                </mxCell>
                <mxCell id="X2Cfei2inoCmWayBkiov-154" style="edgeStyle=none;html=1;" parent="1" source="X2Cfei2inoCmWayBkiov-155" edge="1">
                    <mxGeometry relative="1" as="geometry">
                        <mxPoint x="217.5" y="1690" as="targetPoint"/>
                    </mxGeometry>
                </mxCell>
                <mxCell id="X2Cfei2inoCmWayBkiov-155" value="超载标志" style="text;html=1;align=center;verticalAlign=middle;whiteSpace=wrap;rounded=0;" parent="1" vertex="1">
                    <mxGeometry x="247.5" y="1680" width="50" height="20" as="geometry"/>
                </mxCell>
                <mxCell id="X2Cfei2inoCmWayBkiov-156" value="超载帧" style="text;html=1;align=center;verticalAlign=middle;whiteSpace=wrap;rounded=0;" parent="1" vertex="1">
                    <mxGeometry x="345" y="1640" width="50" height="20" as="geometry"/>
                </mxCell>
                <mxCell id="X2Cfei2inoCmWayBkiov-157" style="edgeStyle=none;html=1;" parent="1" source="X2Cfei2inoCmWayBkiov-159" edge="1">
                    <mxGeometry relative="1" as="geometry">
                        <mxPoint x="407.5" y="1730" as="targetPoint"/>
                    </mxGeometry>
                </mxCell>
                <mxCell id="X2Cfei2inoCmWayBkiov-158" style="edgeStyle=none;html=1;" parent="1" source="X2Cfei2inoCmWayBkiov-159" edge="1">
                    <mxGeometry relative="1" as="geometry">
                        <mxPoint x="217.5" y="1730" as="targetPoint"/>
                    </mxGeometry>
                </mxCell>
                <mxCell id="X2Cfei2inoCmWayBkiov-159" value="超载标志叠加" style="text;html=1;align=center;verticalAlign=middle;whiteSpace=wrap;rounded=0;" parent="1" vertex="1">
                    <mxGeometry x="267.5" y="1720" width="80" height="20" as="geometry"/>
                </mxCell>
                <mxCell id="X2Cfei2inoCmWayBkiov-160" style="edgeStyle=none;html=1;" parent="1" source="X2Cfei2inoCmWayBkiov-162" edge="1">
                    <mxGeometry relative="1" as="geometry">
                        <mxPoint x="407.5" y="1730" as="targetPoint"/>
                    </mxGeometry>
                </mxCell>
                <mxCell id="X2Cfei2inoCmWayBkiov-161" style="edgeStyle=none;html=1;" parent="1" source="X2Cfei2inoCmWayBkiov-162" edge="1">
                    <mxGeometry relative="1" as="geometry">
                        <mxPoint x="527.5" y="1730" as="targetPoint"/>
                    </mxGeometry>
                </mxCell>
                <mxCell id="X2Cfei2inoCmWayBkiov-162" value="超载界定符" style="text;html=1;align=center;verticalAlign=middle;whiteSpace=wrap;rounded=0;" parent="1" vertex="1">
                    <mxGeometry x="435" y="1720" width="70" height="20" as="geometry"/>
                </mxCell>
                <mxCell id="X2Cfei2inoCmWayBkiov-163" value="" style="endArrow=none;html=1;" parent="1" edge="1">
                    <mxGeometry width="50" height="50" relative="1" as="geometry">
                        <mxPoint x="527.5" y="1710" as="sourcePoint"/>
                        <mxPoint x="555" y="1710" as="targetPoint"/>
                    </mxGeometry>
                </mxCell>
                <mxCell id="X2Cfei2inoCmWayBkiov-164" value="" style="endArrow=none;html=1;" parent="1" edge="1">
                    <mxGeometry width="50" height="50" relative="1" as="geometry">
                        <mxPoint x="209.75" y="1380" as="sourcePoint"/>
                        <mxPoint x="448.75" y="1380" as="targetPoint"/>
                    </mxGeometry>
                </mxCell>
                <mxCell id="X2Cfei2inoCmWayBkiov-165" value="帧" style="text;html=1;align=center;verticalAlign=middle;whiteSpace=wrap;rounded=0;" parent="1" vertex="1">
                    <mxGeometry x="218.75" y="1350" width="20" height="20" as="geometry"/>
                </mxCell>
                <mxCell id="X2Cfei2inoCmWayBkiov-166" value="" style="endArrow=none;html=1;" parent="1" edge="1">
                    <mxGeometry width="50" height="50" relative="1" as="geometry">
                        <mxPoint x="248.75" y="1380" as="sourcePoint"/>
                        <mxPoint x="248.75" y="1340" as="targetPoint"/>
                    </mxGeometry>
                </mxCell>
                <mxCell id="X2Cfei2inoCmWayBkiov-167" style="edgeStyle=none;html=1;" parent="1" source="X2Cfei2inoCmWayBkiov-169" edge="1">
                    <mxGeometry relative="1" as="geometry">
                        <mxPoint x="248.75" y="1360" as="targetPoint"/>
                    </mxGeometry>
                </mxCell>
                <mxCell id="X2Cfei2inoCmWayBkiov-168" style="edgeStyle=none;html=1;" parent="1" source="X2Cfei2inoCmWayBkiov-169" edge="1">
                    <mxGeometry relative="1" as="geometry">
                        <mxPoint x="398.75" y="1360" as="targetPoint"/>
                    </mxGeometry>
                </mxCell>
                <mxCell id="X2Cfei2inoCmWayBkiov-169" value="帧间空间" style="text;html=1;align=center;verticalAlign=middle;whiteSpace=wrap;rounded=0;" parent="1" vertex="1">
                    <mxGeometry x="298.75" y="1350" width="50" height="20" as="geometry"/>
                </mxCell>
                <mxCell id="X2Cfei2inoCmWayBkiov-170" value="" style="endArrow=none;html=1;exitX=1;exitY=0;exitDx=0;exitDy=0;" parent="1" source="X2Cfei2inoCmWayBkiov-172" edge="1">
                    <mxGeometry width="50" height="50" relative="1" as="geometry">
                        <mxPoint x="458.75" y="1420" as="sourcePoint"/>
                        <mxPoint x="408.75" y="1340" as="targetPoint"/>
                    </mxGeometry>
                </mxCell>
                <mxCell id="X2Cfei2inoCmWayBkiov-171" value="间歇场" style="rounded=0;whiteSpace=wrap;html=1;" parent="1" vertex="1">
                    <mxGeometry x="248.75" y="1380" width="80" height="40" as="geometry"/>
                </mxCell>
                <mxCell id="X2Cfei2inoCmWayBkiov-172" value="总线空闲" style="rounded=0;whiteSpace=wrap;html=1;" parent="1" vertex="1">
                    <mxGeometry x="328.75" y="1380" width="80" height="40" as="geometry"/>
                </mxCell>
                <mxCell id="X2Cfei2inoCmWayBkiov-173" value="帧" style="text;html=1;align=center;verticalAlign=middle;whiteSpace=wrap;rounded=0;" parent="1" vertex="1">
                    <mxGeometry x="411.25" y="1350" width="20" height="20" as="geometry"/>
                </mxCell>
                <mxCell id="X2Cfei2inoCmWayBkiov-174" value="" style="endArrow=none;html=1;" parent="1" edge="1">
                    <mxGeometry width="50" height="50" relative="1" as="geometry">
                        <mxPoint x="208.75" y="1420" as="sourcePoint"/>
                        <mxPoint x="448.75" y="1420" as="targetPoint"/>
                    </mxGeometry>
                </mxCell>
                <mxCell id="X2Cfei2inoCmWayBkiov-175" value="" style="endArrow=none;html=1;" parent="1" edge="1">
                    <mxGeometry width="50" height="50" relative="1" as="geometry">
                        <mxPoint x="209.75" y="1500" as="sourcePoint"/>
                        <mxPoint x="528.75" y="1500" as="targetPoint"/>
                    </mxGeometry>
                </mxCell>
                <mxCell id="X2Cfei2inoCmWayBkiov-176" value="帧" style="text;html=1;align=center;verticalAlign=middle;whiteSpace=wrap;rounded=0;" parent="1" vertex="1">
                    <mxGeometry x="218.75" y="1470" width="20" height="20" as="geometry"/>
                </mxCell>
                <mxCell id="X2Cfei2inoCmWayBkiov-177" value="" style="endArrow=none;html=1;" parent="1" edge="1">
                    <mxGeometry width="50" height="50" relative="1" as="geometry">
                        <mxPoint x="248.75" y="1500" as="sourcePoint"/>
                        <mxPoint x="248.75" y="1460" as="targetPoint"/>
                    </mxGeometry>
                </mxCell>
                <mxCell id="X2Cfei2inoCmWayBkiov-178" style="edgeStyle=none;html=1;" parent="1" source="X2Cfei2inoCmWayBkiov-180" edge="1">
                    <mxGeometry relative="1" as="geometry">
                        <mxPoint x="248.75" y="1480" as="targetPoint"/>
                    </mxGeometry>
                </mxCell>
                <mxCell id="X2Cfei2inoCmWayBkiov-179" style="edgeStyle=none;html=1;" parent="1" source="X2Cfei2inoCmWayBkiov-180" edge="1">
                    <mxGeometry relative="1" as="geometry">
                        <mxPoint x="488.75" y="1480" as="targetPoint"/>
                    </mxGeometry>
                </mxCell>
                <mxCell id="X2Cfei2inoCmWayBkiov-180" value="帧间空间" style="text;html=1;align=center;verticalAlign=middle;whiteSpace=wrap;rounded=0;" parent="1" vertex="1">
                    <mxGeometry x="343.75" y="1470" width="50" height="20" as="geometry"/>
                </mxCell>
                <mxCell id="X2Cfei2inoCmWayBkiov-181" value="" style="endArrow=none;html=1;exitX=1;exitY=0;exitDx=0;exitDy=0;" parent="1" edge="1">
                    <mxGeometry width="50" height="50" relative="1" as="geometry">
                        <mxPoint x="488.06" y="1500" as="sourcePoint"/>
                        <mxPoint x="488.06" y="1460" as="targetPoint"/>
                    </mxGeometry>
                </mxCell>
                <mxCell id="X2Cfei2inoCmWayBkiov-182" value="间歇场" style="rounded=0;whiteSpace=wrap;html=1;" parent="1" vertex="1">
                    <mxGeometry x="248.75" y="1500" width="80" height="40" as="geometry"/>
                </mxCell>
                <mxCell id="X2Cfei2inoCmWayBkiov-183" value="总线空闲" style="rounded=0;whiteSpace=wrap;html=1;" parent="1" vertex="1">
                    <mxGeometry x="408.75" y="1500" width="80" height="40" as="geometry"/>
                </mxCell>
                <mxCell id="X2Cfei2inoCmWayBkiov-184" value="帧" style="text;html=1;align=center;verticalAlign=middle;whiteSpace=wrap;rounded=0;" parent="1" vertex="1">
                    <mxGeometry x="503.75" y="1470" width="20" height="20" as="geometry"/>
                </mxCell>
                <mxCell id="X2Cfei2inoCmWayBkiov-185" value="" style="endArrow=none;html=1;" parent="1" edge="1">
                    <mxGeometry width="50" height="50" relative="1" as="geometry">
                        <mxPoint x="208.75" y="1540" as="sourcePoint"/>
                        <mxPoint x="528.75" y="1540" as="targetPoint"/>
                    </mxGeometry>
                </mxCell>
                <mxCell id="X2Cfei2inoCmWayBkiov-186" value="暂停发送场" style="rounded=0;whiteSpace=wrap;html=1;" parent="1" vertex="1">
                    <mxGeometry x="328.75" y="1500" width="80" height="40" as="geometry"/>
                </mxCell>
                <mxCell id="X2Cfei2inoCmWayBkiov-187" value="普通帧间隔" style="text;html=1;align=center;verticalAlign=middle;whiteSpace=wrap;rounded=0;" parent="1" vertex="1">
                    <mxGeometry x="198.75" y="1310" width="90" height="30" as="geometry"/>
                </mxCell>
                <mxCell id="X2Cfei2inoCmWayBkiov-188" value="前一帧”错误认可“间隔" style="text;html=1;align=center;verticalAlign=middle;whiteSpace=wrap;rounded=0;" parent="1" vertex="1">
                    <mxGeometry x="198.75" y="1430" width="130" height="30" as="geometry"/>
                </mxCell>
                <mxCell id="X2Cfei2inoCmWayBkiov-189" style="edgeStyle=none;html=1;entryX=0;entryY=0.5;entryDx=0;entryDy=0;" parent="1" source="X2Cfei2inoCmWayBkiov-190" target="X2Cfei2inoCmWayBkiov-192" edge="1">
                    <mxGeometry relative="1" as="geometry"/>
                </mxCell>
                <mxCell id="X2Cfei2inoCmWayBkiov-190" value="MessageBuffer" style="rounded=0;whiteSpace=wrap;html=1;" parent="1" vertex="1">
                    <mxGeometry x="230" y="1960" width="100" height="40" as="geometry"/>
                </mxCell>
                <mxCell id="X2Cfei2inoCmWayBkiov-191" style="edgeStyle=none;html=1;" parent="1" source="X2Cfei2inoCmWayBkiov-192" edge="1">
                    <mxGeometry relative="1" as="geometry">
                        <mxPoint x="530" y="1980" as="targetPoint"/>
                    </mxGeometry>
                </mxCell>
                <mxCell id="X2Cfei2inoCmWayBkiov-192" value="can write buffer" style="rounded=0;whiteSpace=wrap;html=1;" parent="1" vertex="1">
                    <mxGeometry x="370" y="1960" width="100" height="40" as="geometry"/>
                </mxCell>
                <mxCell id="X2Cfei2inoCmWayBkiov-193" value="can tx" style="text;html=1;align=center;verticalAlign=middle;whiteSpace=wrap;rounded=0;" parent="1" vertex="1">
                    <mxGeometry x="161.25" y="1930" width="60" height="30" as="geometry"/>
                </mxCell>
                <mxCell id="X2Cfei2inoCmWayBkiov-194" value="" style="endArrow=classic;html=1;" parent="1" edge="1">
                    <mxGeometry width="50" height="50" relative="1" as="geometry">
                        <mxPoint x="170" y="1980" as="sourcePoint"/>
                        <mxPoint x="230" y="1979.88" as="targetPoint"/>
                    </mxGeometry>
                </mxCell>
                <mxCell id="X2Cfei2inoCmWayBkiov-195" value="can node" style="text;html=1;align=center;verticalAlign=middle;whiteSpace=wrap;rounded=0;" parent="1" vertex="1">
                    <mxGeometry x="470" y="1950" width="60" height="30" as="geometry"/>
                </mxCell>
                <mxCell id="X2Cfei2inoCmWayBkiov-196" value="can rx" style="text;html=1;align=center;verticalAlign=middle;whiteSpace=wrap;rounded=0;" parent="1" vertex="1">
                    <mxGeometry x="165" y="2010" width="60" height="30" as="geometry"/>
                </mxCell>
                <mxCell id="X2Cfei2inoCmWayBkiov-197" style="edgeStyle=none;html=1;entryX=0;entryY=0.5;entryDx=0;entryDy=0;" parent="1" source="X2Cfei2inoCmWayBkiov-198" target="X2Cfei2inoCmWayBkiov-201" edge="1">
                    <mxGeometry relative="1" as="geometry"/>
                </mxCell>
                <mxCell id="X2Cfei2inoCmWayBkiov-198" value="can r0 interrupt" style="rounded=0;whiteSpace=wrap;html=1;" parent="1" vertex="1">
                    <mxGeometry x="230" y="2060" width="100" height="40" as="geometry"/>
                </mxCell>
                <mxCell id="X2Cfei2inoCmWayBkiov-199" value="" style="endArrow=classic;html=1;" parent="1" edge="1">
                    <mxGeometry width="50" height="50" relative="1" as="geometry">
                        <mxPoint x="170" y="2079.7" as="sourcePoint"/>
                        <mxPoint x="230" y="2079.58" as="targetPoint"/>
                    </mxGeometry>
                </mxCell>
                <mxCell id="X2Cfei2inoCmWayBkiov-200" value="can node" style="text;html=1;align=center;verticalAlign=middle;whiteSpace=wrap;rounded=0;" parent="1" vertex="1">
                    <mxGeometry x="165" y="2050" width="60" height="30" as="geometry"/>
                </mxCell>
                <mxCell id="X2Cfei2inoCmWayBkiov-201" value="MessageBuffer" style="rounded=0;whiteSpace=wrap;html=1;" parent="1" vertex="1">
                    <mxGeometry x="370" y="2060" width="100" height="40" as="geometry"/>
                </mxCell>
                <mxCell id="X2Cfei2inoCmWayBkiov-202" value="rx_process" style="text;html=1;align=center;verticalAlign=middle;whiteSpace=wrap;rounded=0;" parent="1" vertex="1">
                    <mxGeometry x="470" y="2050" width="60" height="30" as="geometry"/>
                </mxCell>
                <mxCell id="X2Cfei2inoCmWayBkiov-203" value="" style="endArrow=classic;html=1;exitX=1;exitY=0.5;exitDx=0;exitDy=0;" parent="1" source="X2Cfei2inoCmWayBkiov-201" edge="1">
                    <mxGeometry width="50" height="50" relative="1" as="geometry">
                        <mxPoint x="290" y="2100" as="sourcePoint"/>
                        <mxPoint x="530" y="2080" as="targetPoint"/>
                    </mxGeometry>
                </mxCell>
                <mxCell id="hcfQU6jxBS8Shsu0TyXZ-7" style="edgeStyle=none;html=1;exitX=0.5;exitY=1;exitDx=0;exitDy=0;entryX=0.5;entryY=0;entryDx=0;entryDy=0;startArrow=classic;startFill=1;" parent="1" source="hcfQU6jxBS8Shsu0TyXZ-1" target="hcfQU6jxBS8Shsu0TyXZ-5" edge="1">
                    <mxGeometry relative="1" as="geometry"/>
                </mxCell>
                <mxCell id="hcfQU6jxBS8Shsu0TyXZ-1" value="CanApp1" style="rounded=0;whiteSpace=wrap;html=1;" parent="1" vertex="1">
                    <mxGeometry x="80" y="2400" width="80" height="40" as="geometry"/>
                </mxCell>
                <mxCell id="hcfQU6jxBS8Shsu0TyXZ-8" style="edgeStyle=none;html=1;exitX=0.5;exitY=1;exitDx=0;exitDy=0;entryX=0.5;entryY=0;entryDx=0;entryDy=0;startArrow=classic;startFill=1;" parent="1" source="hcfQU6jxBS8Shsu0TyXZ-2" target="hcfQU6jxBS8Shsu0TyXZ-5" edge="1">
                    <mxGeometry relative="1" as="geometry"/>
                </mxCell>
                <mxCell id="hcfQU6jxBS8Shsu0TyXZ-2" value="CanApp2" style="rounded=0;whiteSpace=wrap;html=1;" parent="1" vertex="1">
                    <mxGeometry x="180" y="2400" width="80" height="40" as="geometry"/>
                </mxCell>
                <mxCell id="hcfQU6jxBS8Shsu0TyXZ-9" style="edgeStyle=none;html=1;exitX=0.5;exitY=1;exitDx=0;exitDy=0;startArrow=classic;startFill=1;" parent="1" source="hcfQU6jxBS8Shsu0TyXZ-3" edge="1">
                    <mxGeometry relative="1" as="geometry">
                        <mxPoint x="270" y="2560" as="targetPoint"/>
                    </mxGeometry>
                </mxCell>
                <mxCell id="hcfQU6jxBS8Shsu0TyXZ-3" value="......" style="rounded=0;whiteSpace=wrap;html=1;" parent="1" vertex="1">
                    <mxGeometry x="275" y="2400" width="80" height="40" as="geometry"/>
                </mxCell>
                <mxCell id="hcfQU6jxBS8Shsu0TyXZ-10" style="edgeStyle=none;html=1;entryX=0.5;entryY=0;entryDx=0;entryDy=0;exitX=0.5;exitY=1;exitDx=0;exitDy=0;startArrow=classic;startFill=1;" parent="1" source="hcfQU6jxBS8Shsu0TyXZ-4" target="hcfQU6jxBS8Shsu0TyXZ-5" edge="1">
                    <mxGeometry relative="1" as="geometry"/>
                </mxCell>
                <mxCell id="hcfQU6jxBS8Shsu0TyXZ-4" value="CanAppN" style="rounded=0;whiteSpace=wrap;html=1;" parent="1" vertex="1">
                    <mxGeometry x="370" y="2400" width="80" height="40" as="geometry"/>
                </mxCell>
                <mxCell id="hcfQU6jxBS8Shsu0TyXZ-5" value="VCAN" style="rounded=0;whiteSpace=wrap;html=1;" parent="1" vertex="1">
                    <mxGeometry x="177.5" y="2560" width="180" height="40" as="geometry"/>
                </mxCell>
                <mxCell id="f8aGZ9Tqro-YFfFbCNr0-16" style="edgeStyle=none;html=1;entryX=0;entryY=0.5;entryDx=0;entryDy=0;" parent="1" source="f8aGZ9Tqro-YFfFbCNr0-2" target="f8aGZ9Tqro-YFfFbCNr0-9" edge="1">
                    <mxGeometry relative="1" as="geometry"/>
                </mxCell>
                <mxCell id="f8aGZ9Tqro-YFfFbCNr0-2" value="Can0App1" style="rounded=0;whiteSpace=wrap;html=1;" parent="1" vertex="1">
                    <mxGeometry x="155" y="2744" width="80" height="40" as="geometry"/>
                </mxCell>
                <mxCell id="f8aGZ9Tqro-YFfFbCNr0-18" style="edgeStyle=none;html=1;entryX=0;entryY=0.5;entryDx=0;entryDy=0;exitX=1;exitY=0.5;exitDx=0;exitDy=0;" parent="1" source="f8aGZ9Tqro-YFfFbCNr0-4" target="f8aGZ9Tqro-YFfFbCNr0-9" edge="1">
                    <mxGeometry relative="1" as="geometry"/>
                </mxCell>
                <mxCell id="f8aGZ9Tqro-YFfFbCNr0-4" value="Can0AppX" style="rounded=0;whiteSpace=wrap;html=1;" parent="1" vertex="1">
                    <mxGeometry x="158.75" y="2884" width="80" height="40" as="geometry"/>
                </mxCell>
                <mxCell id="f8aGZ9Tqro-YFfFbCNr0-9" value="VXCAN0" style="rounded=0;whiteSpace=wrap;html=1;" parent="1" vertex="1">
                    <mxGeometry x="301" y="2745" width="59" height="176" as="geometry"/>
                </mxCell>
                <mxCell id="f8aGZ9Tqro-YFfFbCNr0-10" value="VXCAN1" style="rounded=0;whiteSpace=wrap;html=1;" parent="1" vertex="1">
                    <mxGeometry x="470" y="2744" width="59" height="180" as="geometry"/>
                </mxCell>
                <mxCell id="f8aGZ9Tqro-YFfFbCNr0-11" value="" style="shape=flexArrow;endArrow=classic;startArrow=classic;html=1;exitX=1;exitY=0.5;exitDx=0;exitDy=0;" parent="1" source="f8aGZ9Tqro-YFfFbCNr0-9" target="f8aGZ9Tqro-YFfFbCNr0-10" edge="1">
                    <mxGeometry width="100" height="100" relative="1" as="geometry">
                        <mxPoint x="374" y="3123" as="sourcePoint"/>
                        <mxPoint x="474" y="3023" as="targetPoint"/>
                    </mxGeometry>
                </mxCell>
                <mxCell id="f8aGZ9Tqro-YFfFbCNr0-15" style="edgeStyle=none;html=1;exitX=0.5;exitY=0;exitDx=0;exitDy=0;" parent="1" source="f8aGZ9Tqro-YFfFbCNr0-14" edge="1">
                    <mxGeometry relative="1" as="geometry">
                        <mxPoint x="189" y="2831" as="targetPoint"/>
                    </mxGeometry>
                </mxCell>
                <mxCell id="f8aGZ9Tqro-YFfFbCNr0-17" style="edgeStyle=none;html=1;entryX=0;entryY=0.5;entryDx=0;entryDy=0;" parent="1" source="f8aGZ9Tqro-YFfFbCNr0-14" target="f8aGZ9Tqro-YFfFbCNr0-9" edge="1">
                    <mxGeometry relative="1" as="geometry"/>
                </mxCell>
                <mxCell id="f8aGZ9Tqro-YFfFbCNr0-14" value="......" style="rounded=0;whiteSpace=wrap;html=1;" parent="1" vertex="1">
                    <mxGeometry x="155" y="2814" width="80" height="40" as="geometry"/>
                </mxCell>
                <mxCell id="f8aGZ9Tqro-YFfFbCNr0-23" style="edgeStyle=none;html=1;entryX=1;entryY=0.5;entryDx=0;entryDy=0;" parent="1" source="f8aGZ9Tqro-YFfFbCNr0-19" target="f8aGZ9Tqro-YFfFbCNr0-10" edge="1">
                    <mxGeometry relative="1" as="geometry"/>
                </mxCell>
                <mxCell id="f8aGZ9Tqro-YFfFbCNr0-19" value="Can1App1" style="rounded=0;whiteSpace=wrap;html=1;" parent="1" vertex="1">
                    <mxGeometry x="607" y="2745" width="80" height="40" as="geometry"/>
                </mxCell>
                <mxCell id="f8aGZ9Tqro-YFfFbCNr0-26" style="edgeStyle=none;html=1;entryX=1;entryY=0.5;entryDx=0;entryDy=0;exitX=0;exitY=0.5;exitDx=0;exitDy=0;" parent="1" source="f8aGZ9Tqro-YFfFbCNr0-20" target="f8aGZ9Tqro-YFfFbCNr0-10" edge="1">
                    <mxGeometry relative="1" as="geometry"/>
                </mxCell>
                <mxCell id="f8aGZ9Tqro-YFfFbCNr0-20" value="Can1AppX" style="rounded=0;whiteSpace=wrap;html=1;" parent="1" vertex="1">
                    <mxGeometry x="610.75" y="2885" width="80" height="40" as="geometry"/>
                </mxCell>
                <mxCell id="f8aGZ9Tqro-YFfFbCNr0-21" style="edgeStyle=none;html=1;exitX=0.5;exitY=0;exitDx=0;exitDy=0;" parent="1" source="f8aGZ9Tqro-YFfFbCNr0-22" edge="1">
                    <mxGeometry relative="1" as="geometry">
                        <mxPoint x="641" y="2832" as="targetPoint"/>
                    </mxGeometry>
                </mxCell>
                <mxCell id="f8aGZ9Tqro-YFfFbCNr0-25" style="edgeStyle=none;html=1;entryX=1;entryY=0.5;entryDx=0;entryDy=0;" parent="1" source="f8aGZ9Tqro-YFfFbCNr0-22" target="f8aGZ9Tqro-YFfFbCNr0-10" edge="1">
                    <mxGeometry relative="1" as="geometry"/>
                </mxCell>
                <mxCell id="f8aGZ9Tqro-YFfFbCNr0-22" value="......" style="rounded=0;whiteSpace=wrap;html=1;" parent="1" vertex="1">
                    <mxGeometry x="607" y="2815" width="80" height="40" as="geometry"/>
                </mxCell>
            </root>
        </mxGraphModel>
    </diagram>
    <diagram id="wkg3ZDV0tIPODFWBZpr2" name="33.block">
        <mxGraphModel dx="775" dy="705" grid="1" gridSize="10" guides="1" tooltips="1" connect="1" arrows="1" fold="1" page="1" pageScale="1" pageWidth="850" pageHeight="1100" math="0" shadow="0">
            <root>
                <mxCell id="0"/>
                <mxCell id="1" parent="0"/>
                <mxCell id="iyhTHXTsZrFPe7VVD6YH-8" value="" style="rounded=0;whiteSpace=wrap;html=1;" vertex="1" parent="1">
                    <mxGeometry x="160" y="400" width="570" height="550" as="geometry"/>
                </mxCell>
                <mxCell id="m23rIa6mD1TH56RkPtmN-16" value="" style="rounded=0;whiteSpace=wrap;html=1;dashed=1;" parent="1" vertex="1">
                    <mxGeometry x="250" y="90" width="340" height="270" as="geometry"/>
                </mxCell>
                <mxCell id="m23rIa6mD1TH56RkPtmN-1" value="VFS(Linux虚拟文件系统)" style="rounded=0;whiteSpace=wrap;html=1;" parent="1" vertex="1">
                    <mxGeometry x="280" y="170" width="240" height="30" as="geometry"/>
                </mxCell>
                <mxCell id="m23rIa6mD1TH56RkPtmN-2" value="文件系统(ext4)" style="rounded=0;whiteSpace=wrap;html=1;" parent="1" vertex="1">
                    <mxGeometry x="280" y="210" width="90" height="30" as="geometry"/>
                </mxCell>
                <mxCell id="m23rIa6mD1TH56RkPtmN-3" value="文件系统(fatfs)" style="rounded=0;whiteSpace=wrap;html=1;" parent="1" vertex="1">
                    <mxGeometry x="430" y="210" width="90" height="30" as="geometry"/>
                </mxCell>
                <mxCell id="m23rIa6mD1TH56RkPtmN-4" value="......" style="rounded=0;whiteSpace=wrap;html=1;" parent="1" vertex="1">
                    <mxGeometry x="380" y="210" width="40" height="30" as="geometry"/>
                </mxCell>
                <mxCell id="m23rIa6mD1TH56RkPtmN-5" value="Linux块设备驱动" style="rounded=0;whiteSpace=wrap;html=1;" parent="1" vertex="1">
                    <mxGeometry x="280" y="250" width="240" height="30" as="geometry"/>
                </mxCell>
                <mxCell id="m23rIa6mD1TH56RkPtmN-6" value="EMMC" style="rounded=0;whiteSpace=wrap;html=1;" parent="1" vertex="1">
                    <mxGeometry x="280" y="300" width="50" height="30" as="geometry"/>
                </mxCell>
                <mxCell id="m23rIa6mD1TH56RkPtmN-7" value="SD" style="rounded=0;whiteSpace=wrap;html=1;" parent="1" vertex="1">
                    <mxGeometry x="340" y="300" width="50" height="30" as="geometry"/>
                </mxCell>
                <mxCell id="m23rIa6mD1TH56RkPtmN-8" value="......" style="rounded=0;whiteSpace=wrap;html=1;" parent="1" vertex="1">
                    <mxGeometry x="400" y="300" width="50" height="30" as="geometry"/>
                </mxCell>
                <mxCell id="m23rIa6mD1TH56RkPtmN-9" value="NAND" style="rounded=0;whiteSpace=wrap;html=1;" parent="1" vertex="1">
                    <mxGeometry x="460" y="300" width="50" height="30" as="geometry"/>
                </mxCell>
                <mxCell id="m23rIa6mD1TH56RkPtmN-10" value="" style="endArrow=none;html=1;" parent="1" edge="1">
                    <mxGeometry width="50" height="50" relative="1" as="geometry">
                        <mxPoint x="260" y="290" as="sourcePoint"/>
                        <mxPoint x="580" y="290" as="targetPoint"/>
                    </mxGeometry>
                </mxCell>
                <mxCell id="m23rIa6mD1TH56RkPtmN-11" value="" style="endArrow=none;html=1;" parent="1" edge="1">
                    <mxGeometry width="50" height="50" relative="1" as="geometry">
                        <mxPoint x="260" y="160" as="sourcePoint"/>
                        <mxPoint x="580" y="160" as="targetPoint"/>
                    </mxGeometry>
                </mxCell>
                <mxCell id="m23rIa6mD1TH56RkPtmN-12" value="Rootfs(mount)" style="rounded=0;whiteSpace=wrap;html=1;" parent="1" vertex="1">
                    <mxGeometry x="280" y="120" width="240" height="30" as="geometry"/>
                </mxCell>
                <mxCell id="m23rIa6mD1TH56RkPtmN-13" value="Userspace" style="text;html=1;align=center;verticalAlign=middle;whiteSpace=wrap;rounded=0;" parent="1" vertex="1">
                    <mxGeometry x="530" y="120" width="60" height="30" as="geometry"/>
                </mxCell>
                <mxCell id="m23rIa6mD1TH56RkPtmN-14" value="Kernel" style="text;html=1;align=center;verticalAlign=middle;whiteSpace=wrap;rounded=0;" parent="1" vertex="1">
                    <mxGeometry x="530" y="200" width="60" height="30" as="geometry"/>
                </mxCell>
                <mxCell id="m23rIa6mD1TH56RkPtmN-15" value="Hardware" style="text;html=1;align=center;verticalAlign=middle;whiteSpace=wrap;rounded=0;" parent="1" vertex="1">
                    <mxGeometry x="530" y="300" width="60" height="30" as="geometry"/>
                </mxCell>
                <mxCell id="m23rIa6mD1TH56RkPtmN-17" value="块设备工作框架图" style="text;html=1;align=center;verticalAlign=middle;whiteSpace=wrap;rounded=0;" parent="1" vertex="1">
                    <mxGeometry x="250" y="90" width="100" height="30" as="geometry"/>
                </mxCell>
                <mxCell id="wmRbF_XWqzzbkkY1MWYk-1" value="" style="rounded=0;whiteSpace=wrap;html=1;align=left;" parent="1" vertex="1">
                    <mxGeometry x="320" y="760" width="190" height="140" as="geometry"/>
                </mxCell>
                <mxCell id="wmRbF_XWqzzbkkY1MWYk-2" value="分区1(数据，原始为二进制，格式化对应格式如ext2）" style="rounded=0;whiteSpace=wrap;html=1;" parent="1" vertex="1">
                    <mxGeometry x="320" y="790" width="190" height="50" as="geometry"/>
                </mxCell>
                <mxCell id="wmRbF_XWqzzbkkY1MWYk-3" value="&lt;span style=&quot;color: rgb(0, 0, 0);&quot;&gt;分区2(数据，原始为二进制，格式化对应格式如ext2）&lt;/span&gt;" style="rounded=0;whiteSpace=wrap;html=1;" parent="1" vertex="1">
                    <mxGeometry x="320" y="840" width="190" height="50" as="geometry"/>
                </mxCell>
                <mxCell id="wmRbF_XWqzzbkkY1MWYk-5" value="硬件EMMC" style="text;html=1;align=center;verticalAlign=middle;whiteSpace=wrap;rounded=0;" parent="1" vertex="1">
                    <mxGeometry x="320" y="760" width="70" height="30" as="geometry"/>
                </mxCell>
                <mxCell id="wmRbF_XWqzzbkkY1MWYk-13" style="edgeStyle=none;html=1;" parent="1" source="wmRbF_XWqzzbkkY1MWYk-7" target="wmRbF_XWqzzbkkY1MWYk-1" edge="1">
                    <mxGeometry relative="1" as="geometry"/>
                </mxCell>
                <mxCell id="wmRbF_XWqzzbkkY1MWYk-7" value="SDHC总线驱动，EMMC读写接口" style="rounded=0;whiteSpace=wrap;html=1;" parent="1" vertex="1">
                    <mxGeometry x="320" y="680" width="190" height="40" as="geometry"/>
                </mxCell>
                <mxCell id="wmRbF_XWqzzbkkY1MWYk-11" style="edgeStyle=none;html=1;" parent="1" source="wmRbF_XWqzzbkkY1MWYk-8" target="wmRbF_XWqzzbkkY1MWYk-7" edge="1">
                    <mxGeometry relative="1" as="geometry"/>
                </mxCell>
                <mxCell id="wmRbF_XWqzzbkkY1MWYk-8" value="块设备驱动，/dev/sdx，设备" style="rounded=0;whiteSpace=wrap;html=1;" parent="1" vertex="1">
                    <mxGeometry x="320" y="600" width="190" height="40" as="geometry"/>
                </mxCell>
                <mxCell id="wmRbF_XWqzzbkkY1MWYk-17" style="edgeStyle=none;html=1;entryX=0.5;entryY=0;entryDx=0;entryDy=0;exitX=0.5;exitY=1;exitDx=0;exitDy=0;" parent="1" source="wmRbF_XWqzzbkkY1MWYk-12" target="wmRbF_XWqzzbkkY1MWYk-8" edge="1">
                    <mxGeometry relative="1" as="geometry"/>
                </mxCell>
                <mxCell id="wmRbF_XWqzzbkkY1MWYk-12" value="VFS(文件系统解析)" style="rounded=0;whiteSpace=wrap;html=1;" parent="1" vertex="1">
                    <mxGeometry x="440" y="520" width="190" height="40" as="geometry"/>
                </mxCell>
                <mxCell id="wmRbF_XWqzzbkkY1MWYk-15" value="分区(fdisk)，格式化(&lt;font face=&quot;Consolas, Courier New, monospace&quot; color=&quot;#795e26&quot;&gt;&lt;span style=&quot;font-size: 14px; white-space: pre; background-color: rgb(255, 255, 255);&quot;&gt;mke2fs)&lt;/span&gt;&lt;/font&gt;" style="rounded=0;whiteSpace=wrap;html=1;" parent="1" vertex="1">
                    <mxGeometry x="170" y="520" width="190" height="40" as="geometry"/>
                </mxCell>
                <mxCell id="wmRbF_XWqzzbkkY1MWYk-16" style="edgeStyle=none;html=1;exitX=0.5;exitY=1;exitDx=0;exitDy=0;entryX=0.5;entryY=0;entryDx=0;entryDy=0;" parent="1" source="wmRbF_XWqzzbkkY1MWYk-15" target="wmRbF_XWqzzbkkY1MWYk-8" edge="1">
                    <mxGeometry relative="1" as="geometry"/>
                </mxCell>
                <mxCell id="wmRbF_XWqzzbkkY1MWYk-19" style="edgeStyle=none;html=1;" parent="1" source="wmRbF_XWqzzbkkY1MWYk-18" target="wmRbF_XWqzzbkkY1MWYk-12" edge="1">
                    <mxGeometry relative="1" as="geometry"/>
                </mxCell>
                <mxCell id="wmRbF_XWqzzbkkY1MWYk-18" value="mount执行，读写存储访问" style="rounded=0;whiteSpace=wrap;html=1;" parent="1" vertex="1">
                    <mxGeometry x="440" y="440" width="190" height="40" as="geometry"/>
                </mxCell>
                <mxCell id="wmRbF_XWqzzbkkY1MWYk-22" value="块设备访问原理" style="text;html=1;align=center;verticalAlign=middle;whiteSpace=wrap;rounded=0;" parent="1" vertex="1">
                    <mxGeometry x="170" y="430" width="110" height="30" as="geometry"/>
                </mxCell>
                <mxCell id="iyhTHXTsZrFPe7VVD6YH-1" value="" style="endArrow=none;html=1;" edge="1" parent="1">
                    <mxGeometry width="50" height="50" relative="1" as="geometry">
                        <mxPoint x="170" y="580" as="sourcePoint"/>
                        <mxPoint x="720" y="580" as="targetPoint"/>
                    </mxGeometry>
                </mxCell>
                <mxCell id="iyhTHXTsZrFPe7VVD6YH-2" value="" style="endArrow=none;html=1;" edge="1" parent="1">
                    <mxGeometry width="50" height="50" relative="1" as="geometry">
                        <mxPoint x="170" y="740" as="sourcePoint"/>
                        <mxPoint x="720" y="740" as="targetPoint"/>
                    </mxGeometry>
                </mxCell>
                <mxCell id="iyhTHXTsZrFPe7VVD6YH-3" value="内核层" style="text;html=1;align=center;verticalAlign=middle;whiteSpace=wrap;rounded=0;" vertex="1" parent="1">
                    <mxGeometry x="640" y="640" width="60" height="30" as="geometry"/>
                </mxCell>
                <mxCell id="iyhTHXTsZrFPe7VVD6YH-4" value="硬件设备" style="text;html=1;align=center;verticalAlign=middle;whiteSpace=wrap;rounded=0;" vertex="1" parent="1">
                    <mxGeometry x="640" y="800" width="60" height="30" as="geometry"/>
                </mxCell>
                <mxCell id="iyhTHXTsZrFPe7VVD6YH-6" value="应用访问" style="text;html=1;align=center;verticalAlign=middle;whiteSpace=wrap;rounded=0;" vertex="1" parent="1">
                    <mxGeometry x="640" y="480" width="60" height="30" as="geometry"/>
                </mxCell>
            </root>
        </mxGraphModel>
    </diagram>
</mxfile>